<svg width="25" height="24" viewBox="0 0 25 24" fill="none" xmlns="http://www.w3.org/2000/svg">
<path d="M12.5764 8.87592C10.8561 8.87592 9.45217 10.2798 9.45217 12.0001C9.45217 13.7204 10.8561 15.1244 12.5764 15.1244C14.2967 15.1244 15.7006 13.7204 15.7006 12.0001C15.7006 10.2798 14.2967 8.87592 12.5764 8.87592ZM21.9467 12.0001C21.9467 10.7064 21.9584 9.42435 21.8858 8.13295C21.8131 6.63295 21.4709 5.3017 20.374 4.20482C19.2748 3.1056 17.9459 2.76576 16.4459 2.6931C15.1522 2.62045 13.8701 2.63217 12.5787 2.63217C11.285 2.63217 10.003 2.62045 8.71155 2.6931C7.21155 2.76576 5.8803 3.10795 4.78342 4.20482C3.6842 5.30404 3.34436 6.63295 3.2717 8.13295C3.19905 9.4267 3.21076 10.7087 3.21076 12.0001C3.21076 13.2915 3.19905 14.5759 3.2717 15.8673C3.34436 17.3673 3.68655 18.6986 4.78342 19.7954C5.88264 20.8947 7.21155 21.2345 8.71155 21.3072C10.0053 21.3798 11.2873 21.3681 12.5787 21.3681C13.8725 21.3681 15.1545 21.3798 16.4459 21.3072C17.9459 21.2345 19.2772 20.8923 20.374 19.7954C21.4733 18.6962 21.8131 17.3673 21.8858 15.8673C21.9608 14.5759 21.9467 13.2939 21.9467 12.0001ZM12.5764 16.8072C9.91623 16.8072 7.76936 14.6603 7.76936 12.0001C7.76936 9.33998 9.91623 7.1931 12.5764 7.1931C15.2365 7.1931 17.3834 9.33998 17.3834 12.0001C17.3834 14.6603 15.2365 16.8072 12.5764 16.8072ZM17.5803 8.11889C16.9592 8.11889 16.4576 7.61732 16.4576 6.99623C16.4576 6.37514 16.9592 5.87357 17.5803 5.87357C18.2014 5.87357 18.703 6.37514 18.703 6.99623C18.7031 7.14371 18.6742 7.28978 18.6179 7.42607C18.5615 7.56236 18.4788 7.68619 18.3745 7.79048C18.2703 7.89476 18.1464 7.97745 18.0101 8.03381C17.8738 8.09016 17.7278 8.11907 17.5803 8.11889Z" fill="white"/>
</svg>
