<svg width="149" height="149" viewBox="0 0 149 149" fill="none" xmlns="http://www.w3.org/2000/svg">
<path d="M47.3806 69.9583H49.399L43.1355 78.3106L36.8719 69.9583H38.8903L43.1355 75.6148L47.3806 69.9583ZM52.6715 77.8511H51.0559V70.0052H52.6715V77.8511ZM64.8577 69.9583H66.8761L60.6126 78.3106L54.3491 69.9583H56.3675L60.6126 75.6148L64.8577 69.9583ZM79.6046 71.549H70.1638V73.0666L76.459 73.09V74.7221L70.1693 74.6987V76.2163H79.6046V77.847H68.5331V69.9183H79.6046V71.549ZM91.366 69.91H92.9967V77.7242L83.5572 72.7948V77.8346H81.9251V70.0204L91.3646 74.9498V69.91H91.366ZM95.3186 69.8286H106.389V71.4648H101.668V77.7808H100.037V71.4648H95.3172V69.8286H95.3186ZM119.796 69.8369L119.825 73.7964C119.826 74.2417 119.738 74.6827 119.567 75.0938C119.396 75.5049 119.145 75.878 118.829 76.1914C118.139 76.9006 116.787 77.749 114.295 77.767H114.222C112.338 77.767 110.762 77.2262 109.783 76.2383C109.458 75.9225 109.2 75.5451 109.023 75.1281C108.846 74.7112 108.754 74.2631 108.752 73.8102L108.723 69.8562L110.354 69.8438L110.384 73.8102V73.8199C110.385 74.0582 110.434 74.2939 110.529 74.5126C110.624 74.7313 110.763 74.9283 110.936 75.0919C111.616 75.7817 112.803 76.1487 114.279 76.139C115.785 76.128 116.986 75.7417 117.659 75.0532C117.826 74.8941 117.959 74.7028 118.05 74.4908C118.142 74.2789 118.189 74.0506 118.19 73.8199L118.161 69.8589L119.796 69.8369ZM124.096 71.5862C123.945 71.669 123.79 71.8097 123.79 72.2181C123.79 72.5354 123.892 72.7093 124.156 72.8362C124.338 72.9189 124.535 72.9657 124.735 72.9741L130.667 72.9976C131.698 72.9976 133.235 73.6336 133.235 75.3857C133.235 77.1379 131.807 77.7753 130.847 77.7753H122.158V76.1459H130.833C130.993 76.1354 131.149 76.0922 131.291 76.019C131.443 75.9348 131.597 75.7941 131.597 75.3871C131.597 75.0698 131.495 74.896 131.232 74.769C131.049 74.6862 130.853 74.6394 130.652 74.6311L124.728 74.6049C123.695 74.6049 122.158 73.9689 122.158 72.2167C122.158 70.4646 123.586 69.8272 124.546 69.8272H133.228V71.4648H124.553C124.393 71.4747 124.237 71.518 124.095 71.5918L124.096 71.5862Z" fill="white"/>
<path d="M29.7284 74.0102V73.9481C29.7284 73.9095 29.7284 73.8695 29.7284 73.8309C29.7284 73.7522 29.7284 73.6764 29.7187 73.6005C29.7091 73.5246 29.7008 73.4515 29.6925 73.3784C29.685 73.3069 29.6731 73.2359 29.6566 73.1659C29.5634 72.7134 29.3891 72.2815 29.142 71.8911C29.0455 71.7463 28.9558 71.6318 28.8965 71.5517C28.8371 71.4717 28.8082 71.451 28.8027 71.4469C28.7873 71.4303 28.767 71.4191 28.7447 71.4152L28.764 71.3958C28.2287 70.8822 27.5542 70.5373 26.8244 70.4039C26.0946 70.2706 25.3417 70.3546 24.6594 70.6457C23.977 70.9368 23.3952 71.422 22.9863 72.041C22.5775 72.6601 22.3596 73.3856 22.3598 74.1275C22.3596 74.7153 22.1872 75.2902 21.8637 75.781C21.5402 76.2718 21.08 76.6571 20.5399 76.889C19.9997 77.121 19.4035 77.1895 18.8248 77.0861C18.2461 76.9827 17.7105 76.712 17.2841 76.3073L17.2703 76.288L17.171 76.1887C17.1268 76.1335 17.062 76.0604 16.9806 75.9569C16.7586 75.6556 16.5927 75.3168 16.4908 74.9567C16.4727 74.9003 16.4588 74.8427 16.4494 74.7842C16.437 74.7249 16.4246 74.6642 16.4136 74.6035C16.4025 74.5428 16.4012 74.4765 16.3929 74.4131L16.3846 74.3151V74.2655V74.253C16.3846 74.253 16.3846 74.2793 16.3846 74.2641V74.2241C16.3816 74.0799 16.3881 73.9356 16.4039 73.7922C16.4136 73.7246 16.415 73.6543 16.4301 73.5881C16.4453 73.5218 16.4605 73.4501 16.4757 73.3742C16.5502 73.0797 16.6663 72.7972 16.8206 72.5354C16.9837 72.2628 17.1854 72.0151 17.4193 71.8001C17.658 71.5873 17.925 71.4085 18.2126 71.2689C18.4976 71.1378 18.7987 71.045 19.108 70.993C19.1839 70.9792 19.2598 70.9778 19.3342 70.9695L19.4474 70.9585H19.555C19.7025 70.9567 19.8501 70.965 19.9965 70.9833L20.2007 71.0123C20.2677 71.0239 20.334 71.0391 20.3993 71.0578L20.5911 71.1061C20.6518 71.1268 20.7097 71.1516 20.7677 71.1723L20.9401 71.2386C20.9939 71.2634 21.045 71.291 21.096 71.3172C21.1923 71.3627 21.2846 71.4162 21.372 71.4772C21.4561 71.5352 21.5389 71.5835 21.6093 71.6373L21.7955 71.7932C21.8456 71.8348 21.8918 71.881 21.9335 71.9311C21.9735 71.9711 22.0066 72.007 22.0342 72.036L22.1183 72.1229C22.1183 72.1229 22.0907 72.0912 22.0411 72.0291L21.9473 71.9173C21.9063 71.8645 21.8601 71.816 21.8093 71.7725C21.7555 71.72 21.6976 71.6621 21.6313 71.6C21.5651 71.5379 21.4851 71.4841 21.4037 71.4193C21.3166 71.351 21.2244 71.2897 21.1278 71.2358C21.0781 71.2054 21.0271 71.1723 20.9733 71.1434L20.8022 71.0633C20.7429 71.0371 20.6835 71.0054 20.6214 70.9806L20.4269 70.9157C20.3601 70.8909 20.2919 70.8697 20.2227 70.8523L20.0048 70.8067C19.8565 70.7764 19.7061 70.757 19.555 70.7488H19.4984C19.487 70.7477 19.4754 70.7477 19.4639 70.7488H19.4336H19.3149C19.2349 70.7488 19.1521 70.7488 19.0707 70.7488C18.7311 70.7783 18.397 70.8535 18.0774 70.9723C17.7473 71.1047 17.4368 71.2816 17.1544 71.4979C16.8712 71.7252 16.6229 71.993 16.4177 72.2926C16.2163 72.5822 16.0583 72.8996 15.9486 73.2349C15.9238 73.3177 15.9004 73.4004 15.8755 73.4804C15.8507 73.5605 15.841 73.6529 15.8245 73.7371C15.7976 73.8909 15.7791 74.0461 15.7693 74.202V74.34C15.7693 74.3786 15.7693 74.4186 15.7693 74.4572C15.7693 74.5359 15.7693 74.6117 15.7776 74.6876C15.7858 74.7635 15.7955 74.838 15.8052 74.9097C15.812 74.9813 15.8239 75.0524 15.841 75.1222C15.9343 75.5751 16.1086 76.0075 16.3556 76.3984C16.4522 76.5432 16.5419 76.6577 16.6012 76.7377L16.695 76.844L16.7157 76.8605C17.2497 77.3782 17.9243 77.7271 18.6554 77.8638C19.3865 78.0004 20.1416 77.9186 20.8265 77.6287C21.5114 77.3388 22.0957 76.8536 22.5066 76.2336C22.9174 75.6136 23.1365 74.8864 23.1365 74.1427C23.1351 73.5558 23.3058 72.9813 23.6275 72.4905C23.9492 71.9996 24.4078 71.6138 24.9466 71.381C25.4853 71.1481 26.0805 71.0783 26.6585 71.1803C27.2364 71.2822 27.7718 71.5514 28.1984 71.9546C28.2033 71.9718 28.2117 71.9878 28.2232 72.0015L28.3225 72.1008C28.3653 72.156 28.4315 72.2291 28.5129 72.3326C28.735 72.6337 28.9005 72.9726 29.0013 73.3328C29.0206 73.389 29.0349 73.4467 29.0441 73.5053C29.0551 73.5646 29.0675 73.6253 29.08 73.686C29.0924 73.7467 29.0924 73.8129 29.0993 73.8764L29.1089 73.9744V74.024V74.0627C29.1119 74.2069 29.1055 74.3511 29.0896 74.4945C29.08 74.5621 29.0786 74.6324 29.0634 74.6987C29.0482 74.7649 29.033 74.8366 29.0165 74.9125C28.9432 75.2075 28.827 75.4901 28.6716 75.7513C28.5089 76.0239 28.3077 76.2716 28.0742 76.4867C27.8355 76.6994 27.5686 76.8782 27.2809 77.0178C26.9959 77.1489 26.6949 77.2417 26.3855 77.2937C26.3097 77.3075 26.2338 77.3089 26.1593 77.3172L26.0461 77.3269H26.0172H25.9385C25.791 77.3287 25.6435 77.3204 25.4971 77.302L25.2915 77.2744C25.225 77.2627 25.1591 77.2475 25.0942 77.2289L24.9024 77.1806C24.8417 77.1599 24.7824 77.1351 24.7245 77.1144L24.5534 77.0482C24.4996 77.0233 24.4485 76.9957 24.3975 76.9695C24.301 76.9243 24.2087 76.8708 24.1216 76.8095C24.0374 76.7515 23.9546 76.7033 23.8843 76.6495L23.698 76.4936C23.6479 76.4519 23.6017 76.4057 23.5601 76.3556C23.52 76.3142 23.4856 76.2797 23.4593 76.2507L23.3752 76.1638L23.4524 76.2576L23.5463 76.3694C23.5879 76.4196 23.6341 76.4657 23.6842 76.5074C23.738 76.5598 23.796 76.6177 23.8622 76.6798C23.9284 76.7419 24.0084 76.7957 24.0898 76.8605C24.1769 76.9288 24.2692 76.9901 24.3658 77.044C24.4154 77.0744 24.4665 77.1075 24.5203 77.1365L24.6914 77.2165C24.7507 77.2427 24.81 77.2744 24.8721 77.2993L25.0666 77.3641C25.1335 77.389 25.2016 77.4102 25.2708 77.4276L25.4888 77.4731C25.6371 77.5034 25.7874 77.5228 25.9385 77.531H25.9951C26.0066 77.5322 26.0181 77.5322 26.0296 77.531H26.0599H26.1786C26.2586 77.531 26.3414 77.531 26.4228 77.5241C26.7624 77.4946 27.0966 77.4195 27.4161 77.3006C27.7462 77.1682 28.0568 76.9913 28.3391 76.775C28.621 76.5514 28.8687 76.2879 29.0744 75.9928C29.2758 75.7032 29.4338 75.3857 29.5435 75.0505C29.5683 74.9677 29.5918 74.8849 29.6166 74.8049C29.6415 74.7249 29.6511 74.6324 29.6677 74.5483C29.6946 74.3944 29.713 74.2392 29.7229 74.0833V74.0254L29.7284 74.0102Z" fill="white"/>
</svg>
