<svg width="25" height="24" viewBox="0 0 25 24" fill="none" xmlns="http://www.w3.org/2000/svg">
<path d="M12.5763 8.87604C10.856 8.87604 9.45206 10.2799 9.45206 12.0003C9.45206 13.7206 10.856 15.1245 12.5763 15.1245C14.2966 15.1245 15.7005 13.7206 15.7005 12.0003C15.7005 10.2799 14.2966 8.87604 12.5763 8.87604ZM21.9466 12.0003C21.9466 10.7065 21.9583 9.42448 21.8857 8.13307C21.813 6.63307 21.4708 5.30182 20.3739 4.20495C19.2747 3.10573 17.9458 2.76588 16.4458 2.69323C15.1521 2.62057 13.87 2.63229 12.5786 2.63229C11.2849 2.63229 10.0028 2.62057 8.71144 2.69323C7.21144 2.76588 5.88019 3.10807 4.78331 4.20495C3.6841 5.30416 3.34425 6.63307 3.2716 8.13307C3.19894 9.42682 3.21066 10.7089 3.21066 12.0003C3.21066 13.2917 3.19894 14.576 3.2716 15.8674C3.34425 17.3674 3.68644 18.6987 4.78331 19.7956C5.88253 20.8948 7.21144 21.2346 8.71144 21.3073C10.0052 21.3799 11.2872 21.3682 12.5786 21.3682C13.8724 21.3682 15.1544 21.3799 16.4458 21.3073C17.9458 21.2346 19.2771 20.8924 20.3739 19.7956C21.4732 18.6964 21.813 17.3674 21.8857 15.8674C21.9607 14.576 21.9466 13.294 21.9466 12.0003ZM12.5763 16.8073C9.91613 16.8073 7.76925 14.6604 7.76925 12.0003C7.76925 9.3401 9.91613 7.19323 12.5763 7.19323C15.2364 7.19323 17.3833 9.3401 17.3833 12.0003C17.3833 14.6604 15.2364 16.8073 12.5763 16.8073ZM17.5802 8.11901C16.9591 8.11901 16.4575 7.61744 16.4575 6.99635C16.4575 6.37526 16.9591 5.8737 17.5802 5.8737C18.2013 5.8737 18.7028 6.37526 18.7028 6.99635C18.703 7.14383 18.6741 7.2899 18.6178 7.42619C18.5614 7.56248 18.4787 7.68632 18.3744 7.7906C18.2702 7.89489 18.1463 7.97757 18.01 8.03393C17.8737 8.09028 17.7277 8.11919 17.5802 8.11901Z" fill="white"/>
</svg>
