<svg width="176" height="13" viewBox="0 0 176 13" fill="none" xmlns="http://www.w3.org/2000/svg">
<path d="M47.3636 0.200842H50.3878L41.0031 13L31.6185 0.200842H34.6426L41.0031 8.86893L47.3636 0.200842ZM55.291 12.296H52.8704V0.272729H55.291V12.296ZM73.5498 0.200842H76.574L67.1893 13L57.8046 0.200842H60.8288L67.1893 8.86893L73.5498 0.200842ZM95.6452 2.63847H81.4999V4.96406L90.9322 5.00001V7.50105L81.5082 7.46512V9.7907H95.6452V12.2896H79.0566V0.139536H95.6452V2.63847ZM113.267 0.126851H115.711V12.1015L101.567 4.54757V12.2706H99.1221V0.295982L113.265 7.8499V0.126851H113.267ZM119.19 0.00211623H135.776V2.50951H128.702V12.1882H126.259V2.50951H119.188V0.00211623H119.19ZM155.864 0.0148007L155.908 6.08246C155.909 6.7648 155.777 7.44059 155.521 8.07062C155.265 8.70065 154.889 9.27237 154.415 9.75265C153.382 10.8393 151.356 12.1395 147.623 12.167H147.513C144.689 12.167 142.329 11.3383 140.861 9.82452C140.375 9.34052 139.988 8.76212 139.722 8.1232C139.457 7.48428 139.32 6.79768 139.317 6.10359L139.274 0.0443957L141.717 0.025369L141.762 6.10359V6.11839C141.764 6.48367 141.838 6.84484 141.98 7.17994C142.122 7.51504 142.329 7.81706 142.589 8.06765C143.608 9.12473 145.386 9.68711 147.598 9.67231C149.855 9.65539 151.654 9.06343 152.662 8.00846C152.913 7.76453 153.112 7.47136 153.249 7.14656C153.386 6.82176 153.457 6.47203 153.458 6.11839V6.11839L153.415 0.0486217L155.864 0.0148007ZM162.307 2.69556C162.08 2.82241 161.849 3.03806 161.849 3.66385C161.849 4.15011 162.002 4.41649 162.396 4.61099C162.67 4.73773 162.965 4.8095 163.265 4.82241L172.153 4.85835C173.697 4.85835 176 5.83298 176 8.51797C176 11.203 173.861 12.1797 172.422 12.1797H159.403V9.68287H172.401C172.641 9.66669 172.874 9.6005 173.087 9.48837C173.315 9.35941 173.546 9.14376 173.546 8.52008C173.546 8.03383 173.393 7.76744 172.999 7.57294C172.725 7.44601 172.43 7.37422 172.13 7.36153L163.254 7.32136C161.706 7.32136 159.403 6.34673 159.403 3.66174C159.403 0.976746 161.543 0 162.981 0H175.99V2.50951H162.992C162.752 2.52467 162.518 2.59092 162.305 2.70401L162.307 2.69556Z" fill="white"/>
<path d="M20.915 6.41017V6.31503C20.915 6.25583 20.915 6.19453 20.915 6.13533C20.915 6.01482 20.915 5.89853 20.9006 5.78225C20.8861 5.66598 20.8737 5.55393 20.8613 5.44188C20.8501 5.3323 20.8322 5.22356 20.8075 5.1163C20.6678 4.42291 20.4066 3.76109 20.0365 3.16282C19.8918 2.94083 19.7575 2.76535 19.6686 2.64273C19.5797 2.52011 19.5363 2.48839 19.528 2.48205C19.505 2.45657 19.4745 2.4395 19.4412 2.43343L19.4701 2.40383C18.668 1.61678 17.6574 1.08821 16.564 0.883833C15.4706 0.67946 14.3425 0.808296 13.3201 1.25433C12.2976 1.70036 11.426 2.44392 10.8134 3.39254C10.2008 4.34117 9.87433 5.45302 9.87459 6.58987C9.87438 7.49065 9.61597 8.37162 9.13132 9.12376C8.64667 9.87591 7.95705 10.4662 7.14778 10.8217C6.33852 11.1772 5.44511 11.2822 4.57811 11.1237C3.7111 10.9653 2.90853 10.5503 2.26969 9.93024L2.24902 9.90065L2.10018 9.74843C2.03404 9.66386 1.93688 9.55181 1.81492 9.39325C1.48224 8.93158 1.23366 8.41235 1.0811 7.86048C1.05389 7.77413 1.03316 7.68578 1.01909 7.59621C1.00048 7.5053 0.981878 7.41228 0.965341 7.31925C0.948804 7.22623 0.946736 7.12475 0.934334 7.0275L0.921932 6.87739V6.80128V6.78226C0.921932 6.78226 0.921932 6.82242 0.921932 6.79917V6.73786C0.917475 6.51687 0.927142 6.29582 0.950871 6.07613C0.965341 5.97253 0.967407 5.86471 0.990145 5.76323C1.01288 5.66175 1.03562 5.55182 1.05836 5.43554C1.17004 4.98414 1.34405 4.55131 1.57514 4.15013C1.8196 3.73231 2.12176 3.35278 2.47227 3.02327C2.82988 2.69722 3.22987 2.42331 3.66085 2.20933C4.08782 2.00843 4.53893 1.86624 5.00241 1.78649C5.1161 1.76535 5.22979 1.76323 5.34142 1.75054L5.51092 1.73364H5.67215C5.89324 1.73084 6.11425 1.74355 6.33363 1.77169L6.63956 1.81608C6.73994 1.83384 6.83931 1.85713 6.93723 1.88585L7.22455 1.95986C7.31551 1.99157 7.40233 2.02962 7.48914 2.06133L7.74753 2.16281C7.82815 2.20086 7.90463 2.24315 7.98112 2.28332C8.12542 2.35304 8.26371 2.43509 8.39454 2.52857C8.52063 2.61736 8.64466 2.69135 8.75008 2.7738L9.02914 3.01271C9.10425 3.07654 9.17344 3.14731 9.23585 3.22412C9.2958 3.28543 9.34541 3.3404 9.38675 3.3848L9.51285 3.51799C9.51285 3.51799 9.4715 3.46937 9.39709 3.37423L9.25653 3.20299C9.19515 3.12202 9.12589 3.04763 9.04981 2.98099C8.9692 2.90065 8.88238 2.81186 8.78316 2.71672C8.68393 2.62158 8.56404 2.53913 8.44208 2.43976C8.31163 2.33519 8.1734 2.24119 8.02866 2.15859C7.95424 2.11208 7.87776 2.06133 7.79715 2.01693L7.54082 1.89432C7.45194 1.85415 7.36305 1.80552 7.27003 1.76746L6.97857 1.6681C6.87841 1.62999 6.77628 1.59752 6.67264 1.57085L6.34603 1.50107C6.12384 1.45461 5.89861 1.42493 5.67215 1.41228H5.5874C5.57022 1.41057 5.55291 1.41057 5.53572 1.41228H5.49025H5.31248C5.19258 1.41228 5.06856 1.41228 4.9466 1.41228C4.43769 1.45749 3.93707 1.57269 3.45828 1.75478C2.96367 1.95776 2.49842 2.22875 2.07538 2.56027C1.65095 2.90854 1.27902 3.31887 0.971542 3.77803C0.669814 4.22181 0.433045 4.70827 0.268724 5.22201C0.231516 5.34886 0.196375 5.4757 0.159167 5.59832C0.121959 5.72094 0.107489 5.86259 0.0826832 5.99155C0.0423652 6.22731 0.0147632 6.46518 0 6.70404V6.91546C0 6.97465 0 7.03596 0 7.09515C0 7.21566 -5.04389e-07 7.33194 0.0124022 7.44822C0.0248048 7.56449 0.039274 7.67866 0.0537438 7.78859C0.063924 7.89831 0.0818867 8.00713 0.107489 8.11418C0.247219 8.80823 0.508427 9.47074 0.878522 10.0698C1.02322 10.2918 1.15758 10.4672 1.24647 10.5899L1.38703 10.7527L1.41804 10.778C2.21811 11.5713 3.22893 12.106 4.3243 12.3154C5.41968 12.5247 6.55108 12.3995 7.57727 11.9552C8.60346 11.5109 9.47897 10.7674 10.0945 9.81732C10.71 8.86727 11.0383 7.75282 11.0384 6.61312C11.0362 5.71374 11.292 4.83347 11.774 4.08126C12.2561 3.32905 12.9432 2.73791 13.7504 2.38105C14.5576 2.02419 15.4494 1.91727 16.3153 2.0735C17.1813 2.22974 17.9835 2.64228 18.6226 3.26006C18.6299 3.28643 18.6426 3.31094 18.6598 3.33195L18.8086 3.48416C18.8727 3.56873 18.9719 3.68078 19.0939 3.83934C19.4266 4.30068 19.6746 4.82005 19.8257 5.37211C19.8545 5.45812 19.876 5.54654 19.8897 5.63638C19.9063 5.72729 19.9249 5.82031 19.9435 5.91333C19.9621 6.00635 19.9621 6.10784 19.9724 6.20509L19.9869 6.3552V6.4313V6.49051C19.9914 6.71149 19.9817 6.93254 19.958 7.15224C19.9435 7.25583 19.9414 7.36365 19.9187 7.46513C19.8959 7.56661 19.8732 7.67655 19.8484 7.79283C19.7386 8.24484 19.5644 8.67793 19.3316 9.07824C19.0879 9.496 18.7864 9.87554 18.4366 10.2051C18.079 10.5311 17.679 10.8051 17.248 11.019C16.821 11.2199 16.3699 11.3621 15.9064 11.4419C15.7927 11.463 15.679 11.4651 15.5674 11.4778L15.3979 11.4926H15.3545H15.2367C15.0156 11.4954 14.7946 11.4827 14.5752 11.4546L14.2672 11.4123C14.1676 11.3943 14.0689 11.371 13.9716 11.3425L13.6843 11.2685C13.5933 11.2368 13.5044 11.1987 13.4176 11.167L13.1613 11.0655C13.0807 11.0275 13.0042 10.9852 12.9277 10.945C12.7832 10.8758 12.6448 10.7937 12.5143 10.6998C12.3882 10.611 12.2642 10.537 12.1587 10.4546L11.8797 10.2157C11.8046 10.1518 11.7354 10.0811 11.673 10.0042C11.613 9.94082 11.5614 9.88796 11.5221 9.84357L11.396 9.71037L11.5117 9.85413L11.6523 10.0254C11.7147 10.1023 11.7839 10.173 11.859 10.2368C11.9396 10.3171 12.0265 10.4059 12.1257 10.5011C12.2249 10.5962 12.3448 10.6787 12.4667 10.778C12.5972 10.8826 12.7354 10.9766 12.8802 11.0592C12.9546 11.1057 13.0311 11.1565 13.1117 11.2009L13.368 11.3235C13.4569 11.3636 13.5458 11.4123 13.6388 11.4503L13.9303 11.5497C14.0304 11.5878 14.1326 11.6203 14.2362 11.6469L14.5628 11.7167C14.785 11.7632 15.0102 11.7929 15.2367 11.8055H15.3214C15.3386 11.8072 15.3559 11.8072 15.3731 11.8055H15.4186H15.5964C15.7162 11.8055 15.8403 11.8055 15.9622 11.7949C16.4711 11.7497 16.9718 11.6345 17.4506 11.4524C17.9452 11.2495 18.4104 10.9785 18.8335 10.6469C19.2558 10.3043 19.6269 9.90049 19.9352 9.44822C20.237 9.00444 20.4737 8.51798 20.638 8.00424C20.6752 7.87739 20.7104 7.75055 20.7476 7.62793C20.7848 7.50531 20.7993 7.36365 20.8241 7.23468C20.8644 6.99892 20.892 6.76107 20.9068 6.52221V6.43342L20.915 6.41017Z" fill="white"/>
</svg>
