<svg width="20" height="20" viewBox="0 0 20 20" fill="none" xmlns="http://www.w3.org/2000/svg">
<path d="M18.3328 18.3334L18.3334 18.3328L18.3328 12.4995L12.4995 12.5001L12.5001 18.3334H18.3328ZM7.49991 18.3334L7.49974 18.3328L7.49991 12.4995L1.66665 12.5001L1.66648 18.3334H7.49991ZM18.3334 7.49991L18.3328 1.66665L12.4995 1.66648L12.5001 7.49974L18.3334 7.49991ZM7.49991 7.49974L7.49974 7.49991L7.49991 1.66665L1.66665 1.66648L1.66648 7.49974H7.49991ZM18.3328 20H12.5001C11.5791 20 10.8329 19.2538 10.8329 18.3328V12.5001C10.8329 11.5791 11.5791 10.8329 12.5001 10.8329H18.3328C19.2538 10.8329 20 11.5791 20 12.5001V18.3328C20 19.2538 19.2538 20 18.3328 20ZM7.49991 20H1.66648C0.746241 20 0 19.2538 0 18.3328V12.5001C0 11.5791 0.746241 10.8329 1.66648 10.8329H7.49991C8.42014 10.8329 9.16638 11.5791 9.16638 12.5001V18.3328C9.16638 19.2538 8.42014 20 7.49991 20ZM18.3328 9.16638H12.5001C11.5791 9.16638 10.8329 8.42014 10.8329 7.49991V1.66648C10.8329 0.746241 11.5791 0 12.5001 0H18.3328C19.2538 0 20 0.746241 20 1.66648V7.49991C20 8.42014 19.2538 9.16638 18.3328 9.16638ZM7.49991 9.16638H1.66648C0.746241 9.16638 0 8.42014 0 7.49991V1.66648C0 0.746241 0.746241 0 1.66648 0H7.49991C8.42014 0 9.16638 0.746241 9.16638 1.66648V7.49991C9.16638 8.42014 8.42014 9.16638 7.49991 9.16638Z" fill="white" fill-opacity="0.5"/>
</svg>
