<svg width="235" height="69" viewBox="0 0 235 69" fill="none" xmlns="http://www.w3.org/2000/svg">
<g opacity="0.5">
<path d="M2 44.0365C31.5675 44.0365 28.0708 25.0365 57.6383 25.0365C87.2058 25.0365 83.7091 30.1032 113.277 30.1032C142.844 30.1032 138.288 38.427 167.855 38.427C197.423 38.427 202.432 42.7032 232 42.7032" stroke="#FA2256" stroke-width="3" stroke-linecap="round"/>
<path d="M2 44.0365C31.5675 44.0365 28.0708 25.0365 57.6383 25.0365C87.2058 25.0365 83.7091 30.1032 113.277 30.1032C142.844 30.1032 138.288 38.427 167.855 38.427C197.423 38.427 202.432 42.7032 232 42.7032" stroke="url(#paint0_linear)" stroke-width="3" stroke-linecap="round"/>
<path fill-rule="evenodd" clip-rule="evenodd" d="M2 43.1806C31.5675 43.1806 28.0708 25.0365 57.6383 25.0365C87.2058 25.0365 83.7091 29.8749 113.277 29.8749C142.844 29.8749 138.288 37.8238 167.855 37.8238C197.423 37.8238 202.432 41.9074 232 41.9074" fill="url(#paint1_linear)"/>
<path fill-rule="evenodd" clip-rule="evenodd" d="M2 41.9635C30.8857 41.9635 34.573 32.4902 63.4587 32.4902C92.3444 32.4902 87.5547 24.9635 116.44 24.9635C145.326 24.9635 144.775 35.6047 173.661 35.6047C202.546 35.6047 204.114 40.9682 233 40.9682" fill="url(#paint2_linear)"/>
<path d="M2 41.9635C30.8857 41.9635 34.573 32.4902 63.4587 32.4902C92.3444 32.4902 87.5547 24.9635 116.44 24.9635C145.326 24.9635 144.775 35.6047 173.661 35.6047C202.546 35.6047 204.114 40.9682 233 40.9682" stroke="#11CABE" stroke-width="3" stroke-linecap="round"/>
<path d="M2 41.9635C30.8857 41.9635 34.573 32.4902 63.4587 32.4902C92.3444 32.4902 87.5547 24.9635 116.44 24.9635C145.326 24.9635 144.775 35.6047 173.661 35.6047C202.546 35.6047 204.114 40.9682 233 40.9682" stroke="url(#paint3_linear)" stroke-width="3" stroke-linecap="round"/>
</g>
<defs>
<linearGradient id="paint0_linear" x1="117" y1="25.0365" x2="117" y2="44.0365" gradientUnits="userSpaceOnUse">
<stop stop-color="#FCFCFC"/>
<stop offset="1" stop-color="#C0C0C0"/>
</linearGradient>
<linearGradient id="paint1_linear" x1="116.599" y1="18.3608" x2="116.664" y2="44.0374" gradientUnits="userSpaceOnUse">
<stop stop-color="#E3E3E3"/>
<stop offset="1" stop-color="#1A1A1A" stop-opacity="0"/>
</linearGradient>
<linearGradient id="paint2_linear" x1="117.5" y1="21.8726" x2="117.5" y2="41.9635" gradientUnits="userSpaceOnUse">
<stop stop-color="white"/>
<stop offset="1" stop-opacity="0"/>
</linearGradient>
<linearGradient id="paint3_linear" x1="233" y1="29.2135" x2="7.78893" y2="31.829" gradientUnits="userSpaceOnUse">
<stop stop-color="white"/>
<stop offset="1" stop-color="#A9A9A9"/>
</linearGradient>
</defs>
</svg>
