<svg width="235" height="69" viewBox="0 0 235 69" fill="none" xmlns="http://www.w3.org/2000/svg">
<g opacity="0.5">
<path d="M2 64.1642C31.581 64.1642 28.0826 14.646 57.6636 14.646C87.2446 14.646 83.7462 27.8508 113.327 27.8508C142.908 27.8508 138.35 49.5445 167.931 49.5445C197.512 49.5445 202.524 60.6892 232.105 60.6892" stroke="#FA2256" stroke-width="3" stroke-linecap="round"/>
<path d="M2 64.1642C31.581 64.1642 28.0826 14.646 57.6636 14.646C87.2446 14.646 83.7462 27.8508 113.327 27.8508C142.908 27.8508 138.35 49.5445 167.931 49.5445C197.512 49.5445 202.524 60.6892 232.105 60.6892" stroke="url(#paint0_linear)" stroke-width="3" stroke-linecap="round"/>
<path fill-rule="evenodd" clip-rule="evenodd" d="M2 64.1642C31.581 64.1642 28.0826 14.646 57.6636 14.646C87.2446 14.646 83.7462 27.8508 113.327 27.8508C142.908 27.8508 138.35 49.5445 167.931 49.5445C197.512 49.5445 202.524 60.6892 232.105 60.6892" fill="url(#paint1_linear)"/>
<path fill-rule="evenodd" clip-rule="evenodd" d="M2 64.1641C30.8857 64.1641 34.573 29.8017 63.4587 29.8017C92.3444 29.8017 87.5547 2.5 116.44 2.5C145.326 2.5 144.775 41.0989 173.661 41.0989C202.546 41.0989 204.114 60.5537 233 60.5537" fill="url(#paint2_linear)"/>
<path d="M2 64.1641C30.8857 64.1641 34.573 29.8017 63.4587 29.8017C92.3444 29.8017 87.5547 2.5 116.44 2.5C145.326 2.5 144.775 41.0989 173.661 41.0989C202.546 41.0989 204.114 60.5537 233 60.5537" stroke="#11CABE" stroke-width="3" stroke-linecap="round"/>
<path d="M2 64.1641C30.8857 64.1641 34.573 29.8017 63.4587 29.8017C92.3444 29.8017 87.5547 2.5 116.44 2.5C145.326 2.5 144.775 41.0989 173.661 41.0989C202.546 41.0989 204.114 60.5537 233 60.5537" stroke="url(#paint3_linear)" stroke-width="3" stroke-linecap="round"/>
</g>
<defs>
<linearGradient id="paint0_linear" x1="117.052" y1="14.646" x2="117.052" y2="64.1642" gradientUnits="userSpaceOnUse">
<stop stop-color="#FCFCFC"/>
<stop offset="1" stop-color="#C0C0C0"/>
</linearGradient>
<linearGradient id="paint1_linear" x1="116.651" y1="-3.57296" x2="117.137" y2="66.4994" gradientUnits="userSpaceOnUse">
<stop stop-color="#E3E3E3"/>
<stop offset="1" stop-color="#1A1A1A" stop-opacity="0"/>
</linearGradient>
<linearGradient id="paint2_linear" x1="117.5" y1="-8.71166" x2="117.5" y2="64.1641" gradientUnits="userSpaceOnUse">
<stop stop-color="white"/>
<stop offset="1" stop-opacity="0"/>
</linearGradient>
<linearGradient id="paint3_linear" x1="233" y1="17.9159" x2="7.76086" y2="18.6371" gradientUnits="userSpaceOnUse">
<stop stop-color="white"/>
<stop offset="1" stop-color="#A9A9A9"/>
</linearGradient>
</defs>
</svg>
