<svg width="97" height="28" viewBox="0 0 97 28" fill="none" xmlns="http://www.w3.org/2000/svg">
<path d="M3.25122 25.3401L1 23.8857V27C1 27.5523 1.44772 28 2 28H96C96.5523 28 97 27.5523 97 27V14.4571L95.5161 17.9083C95.4269 18.1157 95.2702 18.2868 95.0714 18.3938L93.4675 19.2573C92.9342 19.5444 92.2701 19.2952 92.0572 18.7281L90.1083 13.5344C89.9619 13.1442 89.5888 12.8857 89.172 12.8857H87.9838C87.5569 12.8857 87.177 12.6147 87.0382 12.211L86.2157 9.82003C85.9645 9.08972 85.0155 8.90772 84.5119 9.49329L84.3263 9.70916C84.1363 9.93007 83.8594 10.0571 83.5681 10.0571H79.199C78.9656 10.0571 78.7396 9.97551 78.56 9.82639L77.4865 8.93473C77.0075 8.53685 76.2853 8.66882 75.9779 9.21037L74.079 12.5561C73.6563 13.3008 72.5542 13.2044 72.2672 12.3977L69.8796 5.68798C69.8003 5.46514 69.6446 5.27762 69.4401 5.15873L66.8226 3.63686C66.6227 3.52065 66.3888 3.47729 66.1605 3.51415L63.2341 3.9868C62.859 4.04738 62.4819 3.89011 62.261 3.5809L60.5085 1.12792C60.1119 0.572822 59.2882 0.569028 58.8865 1.12045L56.6513 4.18906C56.2464 4.74485 55.4098 4.72111 55.0371 4.14327C54.6452 3.53567 53.7526 3.54783 53.3774 4.16589L51.9071 6.58802C51.4944 7.26796 50.4915 7.21723 50.1495 6.49911L48.0403 2.07064C47.6648 1.28229 46.5301 1.32012 46.208 2.13174L44.0613 7.54033C43.9101 7.9213 43.5417 8.17143 43.1318 8.17143H42.2056C41.8027 8.17143 41.4392 8.41323 41.2834 8.7848L37.4035 18.0396C37.3513 18.1643 37.2743 18.2771 37.1772 18.3711L32.7862 22.6262C32.4168 22.9842 31.836 23.0035 31.4436 22.6708L29.9538 21.4075C29.696 21.189 29.3452 21.1154 29.0213 21.212L25.9089 22.14C25.55 22.247 25.2809 22.5457 25.2118 22.9139L24.8287 24.9558C24.74 25.4288 24.327 25.7714 23.8459 25.7714H21.5793C21.2809 25.7714 20.9981 25.6382 20.8081 25.4081L17.9504 21.9465C17.5629 21.4771 16.8496 21.4598 16.4398 21.9098L12.9982 25.6896C12.6368 26.0865 12.0266 26.1273 11.6157 25.7821L8.17749 22.8946C7.78492 22.5649 7.20661 22.5855 6.83846 22.9423L4.48977 25.2182C4.15557 25.5421 3.64213 25.5926 3.25122 25.3401Z" fill="url(#paint0_linear)"/>
<path d="M1 23.8857L3.25122 25.3401C3.64212 25.5926 4.15557 25.5421 4.48977 25.2182L6.83846 22.9423C7.20661 22.5855 7.78492 22.5649 8.17749 22.8946L11.6156 25.7821C12.0266 26.1273 12.6368 26.0865 12.9982 25.6896L16.4398 21.9098C16.8496 21.4598 17.5629 21.4771 17.9504 21.9465L20.8081 25.4081C20.9981 25.6382 21.2809 25.7714 21.5793 25.7714H23.8459C24.327 25.7714 24.74 25.4288 24.8287 24.9558L25.2118 22.9139C25.2809 22.5457 25.55 22.247 25.9089 22.14L29.0213 21.212C29.3452 21.1154 29.696 21.189 29.9538 21.4075L31.4436 22.6708C31.836 23.0035 32.4168 22.9842 32.7862 22.6262L37.1772 18.3711C37.2743 18.2771 37.3513 18.1643 37.4035 18.0396L41.2834 8.7848C41.4392 8.41323 41.8027 8.17143 42.2056 8.17143H43.1318C43.5417 8.17143 43.9101 7.9213 44.0613 7.54033L46.208 2.13174C46.5301 1.32012 47.6648 1.28229 48.0403 2.07065L50.1495 6.49911C50.4915 7.21723 51.4944 7.26796 51.9071 6.58802L53.3774 4.16589C53.7526 3.54783 54.6452 3.53567 55.0371 4.14327V4.14327C55.4098 4.72111 56.2464 4.74485 56.6513 4.18906L58.8865 1.12045C59.2882 0.569028 60.1119 0.572823 60.5085 1.12792L62.261 3.5809C62.4819 3.89011 62.8589 4.04738 63.2341 3.9868L66.1605 3.51415C66.3888 3.47729 66.6227 3.52065 66.8226 3.63686L69.4401 5.15873C69.6445 5.27762 69.8003 5.46514 69.8796 5.68798L72.2672 12.3977C72.5542 13.2044 73.6563 13.3008 74.079 12.5561L75.9779 9.21037C76.2853 8.66882 77.0075 8.53685 77.4865 8.93473L78.56 9.82639C78.7396 9.97551 78.9656 10.0571 79.199 10.0571H83.5681C83.8594 10.0571 84.1363 9.93007 84.3263 9.70916L84.5119 9.49329C85.0155 8.90772 85.9645 9.08972 86.2157 9.82003L87.0382 12.211C87.177 12.6147 87.5569 12.8857 87.9838 12.8857H89.172C89.5888 12.8857 89.9619 13.1442 90.1083 13.5344L92.0572 18.7281C92.27 19.2952 92.9342 19.5444 93.4675 19.2573L95.0013 18.4316C95.2421 18.3019 95.4193 18.0793 95.4917 17.8156L96.4286 14.4" stroke="#11CABE" stroke-linecap="round"/>
<defs>
<linearGradient id="paint0_linear" x1="49" y1="0" x2="49" y2="28" gradientUnits="userSpaceOnUse">
<stop offset="0.260417" stop-color="#BCFFE9" stop-opacity="0.4"/>
<stop offset="1" stop-opacity="0"/>
</linearGradient>
</defs>
</svg>
