<svg width="98" height="29" viewBox="0 0 98 29" fill="none" xmlns="http://www.w3.org/2000/svg">
<path d="M2.89262 23.3338L1 21.7189V28C1 28.5523 1.44772 29 2 29H96C96.5523 29 97 28.5523 97 28V4.71084L93.5957 7.47597C93.1641 7.82651 92.5295 7.75772 92.1831 7.32285L89.1601 3.52815C88.852 3.14136 88.3074 3.03788 87.8788 3.28469L87.7525 3.35744C87.3267 3.60269 86.7858 3.50223 86.4765 3.12043L85.3213 1.6947C85.0007 1.2991 84.4341 1.2075 84.0053 1.48195L83.0288 2.10687C82.8952 2.19236 82.7432 2.24485 82.5853 2.26001L77.0073 2.79545C76.6253 2.83212 76.298 3.08418 76.1649 3.44415L73.6407 10.2727C73.337 11.0945 72.1984 11.1561 71.8077 10.372L69.5714 5.88337C69.4022 5.54389 69.0556 5.32932 68.6763 5.32932H66.5466C66.0812 5.32932 65.6774 5.65038 65.5724 6.10378L64.6424 10.1211C64.5374 10.5745 64.1335 10.8956 63.6681 10.8956H62.4125C62.2776 10.8956 62.1441 10.8683 62.02 10.8154L60.1603 10.022C59.6798 9.81693 59.1224 10.0164 58.881 10.4798L56.3817 15.2781C56.0735 15.8698 55.2835 15.9995 54.8023 15.5376L54.7518 15.4891C54.2838 15.0399 53.5187 15.1482 53.1937 15.7096L53.049 15.9597C52.6726 16.6101 51.7401 16.6285 51.3384 15.9933L47.755 10.3279C47.3258 9.64932 46.3123 9.72775 45.9926 10.4643L45.4532 11.7068C45.2668 12.1364 44.8073 12.379 44.3474 12.2907L42.6766 11.9699C42.2273 11.8837 41.7768 12.1133 41.5826 12.5275L39.2618 17.4783C39.1084 17.8055 38.7904 18.0245 38.43 18.0511L35.3196 18.2808C35.0083 18.3038 34.7255 18.4708 34.5552 18.7324L32.6656 21.6347C32.2215 22.3167 31.1922 22.2109 30.8961 21.4529L30.239 19.7708C29.9736 19.0916 29.094 18.9156 28.5878 19.4404L22.6184 25.629C22.1339 26.1313 21.2969 25.9954 20.9962 25.3656L18.9048 20.9854C18.5556 20.254 17.5268 20.2201 17.1303 20.9271L16.0013 22.9397C15.8836 23.1496 15.6942 23.3099 15.4678 23.3914L14.1575 23.8631C13.6477 24.0466 13.0845 23.7907 12.8874 23.286L11.5572 19.8811C11.4074 19.4975 11.0376 19.245 10.6258 19.245H9.89885C9.57123 19.245 9.26438 19.0845 9.0775 18.8154L8.44291 17.9017C8.00116 17.2656 7.0352 17.3514 6.71251 18.0554L4.45076 22.9897C4.17422 23.5931 3.39748 23.7646 2.89262 23.3338Z" fill="url(#paint0_linear)"/>
<path d="M1 21.7189L2.89262 23.3338C3.39748 23.7646 4.17422 23.5931 4.45076 22.9897L6.71251 18.0554C7.0352 17.3514 8.00116 17.2656 8.44291 17.9017L9.0775 18.8154C9.26438 19.0845 9.57123 19.245 9.89885 19.245H10.6258C11.0376 19.245 11.4074 19.4975 11.5572 19.8811L12.8874 23.286C13.0845 23.7907 13.6477 24.0466 14.1575 23.8631L15.4678 23.3914C15.6942 23.3099 15.8836 23.1496 16.0013 22.9397L17.1303 20.9271C17.5268 20.2201 18.5556 20.254 18.9048 20.9854L20.9962 25.3656C21.2969 25.9954 22.1339 26.1313 22.6184 25.629L28.5878 19.4404C29.094 18.9156 29.9736 19.0916 30.239 19.7708L30.8961 21.4529C31.1922 22.2109 32.2215 22.3167 32.6656 21.6347L34.5552 18.7324C34.7255 18.4708 35.0082 18.3038 35.3196 18.2808L38.43 18.0511C38.7904 18.0245 39.1084 17.8055 39.2618 17.4783L41.5826 12.5275C41.7768 12.1133 42.2273 11.8837 42.6766 11.9699L44.3474 12.2907C44.8073 12.379 45.2668 12.1364 45.4532 11.7068L45.9926 10.4643C46.3123 9.72775 47.3258 9.64932 47.755 10.3279L51.3384 15.9933C51.7401 16.6285 52.6726 16.6101 53.049 15.9597L53.1937 15.7096C53.5187 15.1482 54.2838 15.0399 54.7517 15.4891L54.8023 15.5376C55.2835 15.9995 56.0735 15.8698 56.3817 15.2781L58.881 10.4798C59.1224 10.0164 59.6798 9.81693 60.1603 10.022L62.02 10.8154C62.1441 10.8683 62.2776 10.8956 62.4125 10.8956H63.6681C64.1335 10.8956 64.5374 10.5745 64.6424 10.1211L65.5724 6.10378C65.6774 5.65038 66.0812 5.32932 66.5466 5.32932H68.6763C69.0556 5.32932 69.4022 5.54389 69.5714 5.88337L71.8077 10.372C72.1984 11.1561 73.337 11.0945 73.6407 10.2727L76.1649 3.44415C76.298 3.08418 76.6253 2.83212 77.0073 2.79545L82.5853 2.26001C82.7432 2.24485 82.8952 2.19236 83.0288 2.10687L84.0053 1.48195C84.4341 1.2075 85.0007 1.2991 85.3213 1.6947L86.4765 3.12043C86.7858 3.50223 87.3267 3.60269 87.7525 3.35744L87.8788 3.28469C88.3074 3.03788 88.852 3.14136 89.1601 3.52815L92.1831 7.32285C92.5295 7.75772 93.1641 7.82651 93.5957 7.47597L97 4.71084" stroke="#11CABE" stroke-linecap="round"/>
<defs>
<linearGradient id="paint0_linear" x1="49" y1="1" x2="49" y2="29" gradientUnits="userSpaceOnUse">
<stop offset="0.260417" stop-color="#BCFBFF" stop-opacity="0.4"/>
<stop offset="1" stop-opacity="0"/>
</linearGradient>
</defs>
</svg>
