<svg width="235" height="69" viewBox="0 0 235 69" fill="none" xmlns="http://www.w3.org/2000/svg">
<g opacity="0.5">
<path d="M2 41.2208C31.581 41.2208 28.0826 30.0018 57.6636 30.0018C87.2446 30.0018 83.7462 32.9936 113.327 32.9936C142.908 32.9936 138.35 37.9085 167.931 37.9085C197.512 37.9085 202.524 40.4335 232.105 40.4335" stroke="#FA2256" stroke-width="3" stroke-linecap="round"/>
<path d="M2 41.2208C31.581 41.2208 28.0826 30.0018 57.6636 30.0018C87.2446 30.0018 83.7462 32.9936 113.327 32.9936C142.908 32.9936 138.35 37.9085 167.931 37.9085C197.512 37.9085 202.524 40.4335 232.105 40.4335" stroke="url(#paint0_linear)" stroke-width="3" stroke-linecap="round"/>
<path fill-rule="evenodd" clip-rule="evenodd" d="M2 41.2208C31.581 41.2208 28.0826 30.0018 57.6636 30.0018C87.2446 30.0018 83.7462 32.9936 113.327 32.9936C142.908 32.9936 138.35 37.9085 167.931 37.9085C197.512 37.9085 202.524 40.4335 232.105 40.4335" fill="url(#paint1_linear)"/>
<path fill-rule="evenodd" clip-rule="evenodd" d="M2 41.2208C30.8857 41.2208 34.573 33.4355 63.4587 33.4355C92.3444 33.4355 87.5547 27.25 116.44 27.25C145.326 27.25 144.775 35.9951 173.661 35.9951C202.546 35.9951 204.114 40.4028 233 40.4028" fill="url(#paint2_linear)"/>
<path d="M2 41.2208C30.8857 41.2208 34.573 33.4355 63.4587 33.4355C92.3444 33.4355 87.5547 27.25 116.44 27.25C145.326 27.25 144.775 35.9951 173.661 35.9951C202.546 35.9951 204.114 40.4028 233 40.4028" stroke="#11CABE" stroke-width="3" stroke-linecap="round"/>
<path d="M2 41.2208C30.8857 41.2208 34.573 33.4355 63.4587 33.4355C92.3444 33.4355 87.5547 27.25 116.44 27.25C145.326 27.25 144.775 35.9951 173.661 35.9951C202.546 35.9951 204.114 40.4028 233 40.4028" stroke="url(#paint3_linear)" stroke-width="3" stroke-linecap="round"/>
</g>
<defs>
<linearGradient id="paint0_linear" x1="117.052" y1="30.0018" x2="117.052" y2="41.2208" gradientUnits="userSpaceOnUse">
<stop stop-color="#FCFCFC"/>
<stop offset="1" stop-color="#C0C0C0"/>
</linearGradient>
<linearGradient id="paint1_linear" x1="116.651" y1="25.8741" x2="116.676" y2="41.7506" gradientUnits="userSpaceOnUse">
<stop stop-color="#E3E3E3"/>
<stop offset="1" stop-color="#1A1A1A" stop-opacity="0"/>
</linearGradient>
<linearGradient id="paint2_linear" x1="117.5" y1="24.7099" x2="117.5" y2="41.2208" gradientUnits="userSpaceOnUse">
<stop stop-color="white"/>
<stop offset="1" stop-opacity="0"/>
</linearGradient>
<linearGradient id="paint3_linear" x1="233" y1="30.7427" x2="7.80353" y2="33.9251" gradientUnits="userSpaceOnUse">
<stop stop-color="white"/>
<stop offset="1" stop-color="#A9A9A9"/>
</linearGradient>
</defs>
</svg>
