<svg width="16" height="16" viewBox="0 0 16 16" fill="none" xmlns="http://www.w3.org/2000/svg">
<path d="M4.39326 7.90568C4.47742 8.06168 4.63745 8.15893 4.81151 8.15893H7.52181V13.5105C7.52181 13.7807 7.73603 14 7.99998 14C8.26393 14 8.47816 13.7807 8.47816 13.5105V8.15893H11.1885C11.3631 8.15893 11.5232 8.06168 11.6067 7.90568C11.6915 7.74969 11.6858 7.5591 11.5933 7.40832L8.40484 2.22845C8.31685 2.08616 8.16447 2 7.99998 2C7.83549 2 7.68311 2.08616 7.59513 2.22845L4.40665 7.40832C4.3582 7.48795 4.33333 7.57868 4.33333 7.6694C4.33333 7.75034 4.35373 7.83193 4.39326 7.90568" fill="#11CABE"/>
</svg>
