<svg width="20" height="20" viewBox="0 0 20 20" fill="none" xmlns="http://www.w3.org/2000/svg">
<path d="M6.37474 8.5106L9.99996 4.88537L13.6269 8.51217L15.7362 6.40283L9.99996 0.666687L4.26556 6.40111L6.37482 8.51045L6.37474 8.5106ZM0.666626 10.0001L2.77603 7.89034L4.88529 9.99961L2.77588 12.109L0.666626 10.0001ZM6.37474 11.4897L9.99996 15.1147L13.6268 11.488L15.7373 13.5962L15.7362 13.5974L9.99996 19.3334L4.26556 13.599L4.26257 13.596L6.37497 11.4895L6.37474 11.4897ZM15.1146 10.001L17.224 7.89154L19.3333 10.0008L17.224 12.1102L15.1146 10.001Z" fill="white"/>
<path d="M12.1393 9.99891H12.1402L9.99997 7.85846L8.41801 9.44002L8.23627 9.62183L7.86145 9.99674L7.85846 9.99966L7.86145 10.0027L9.99997 12.1416L12.1404 10.0012L12.1414 9.99996L12.1395 9.99891" fill="white"/>
</svg>
