<svg width="25" height="25" viewBox="0 0 25 25" fill="none" xmlns="http://www.w3.org/2000/svg">
<path d="M24.3604 15.7279C22.7571 22.1599 16.2404 26.0698 9.81761 24.4664C3.38542 22.8631 -0.524512 16.3467 1.07889 9.92398C2.68221 3.49198 9.18939 -0.41796 15.6216 1.18545C22.0444 2.77938 25.9638 9.29576 24.3604 15.7279Z" fill="#4D4D4D"/>
<path d="M18.4329 11.3305C18.6672 9.73679 17.4579 8.87429 15.7891 8.30242L16.3329 6.13679L15.0204 5.80867L14.4954 7.91804C14.1485 7.83367 13.7922 7.74929 13.436 7.67429L13.961 5.55554L12.6485 5.22742L12.1141 7.38367C11.8235 7.31804 11.5422 7.25242 11.2704 7.18679V7.17742L9.45162 6.72742L9.10475 8.13367C9.10475 8.13367 10.0797 8.35867 10.061 8.36804C10.5954 8.49929 10.6891 8.85554 10.6704 9.13679L10.0516 11.6024C10.0891 11.6118 10.136 11.6212 10.1922 11.6493C10.1454 11.6399 10.0985 11.6305 10.0516 11.6118L9.18912 15.0618C9.1235 15.2212 8.95475 15.4649 8.58912 15.3712C8.5985 15.3899 7.63287 15.1368 7.63287 15.1368L6.97662 16.6462L8.69225 17.0774C9.011 17.1618 9.32037 17.2368 9.62975 17.3212L9.086 19.5055L10.3985 19.8337L10.9422 17.668C11.2985 17.7618 11.6547 17.8555 11.9922 17.9399L11.4579 20.0962L12.7704 20.4243L13.3141 18.2399C15.5641 18.6618 17.2516 18.493 17.9547 16.4587C18.5266 14.8274 17.9266 13.8805 16.7454 13.2618C17.6172 13.0649 18.2641 12.493 18.4329 11.3305ZM15.4235 15.5493C15.0204 17.1805 12.2641 16.2993 11.3735 16.0743L12.0954 13.1774C12.986 13.4024 15.8547 13.843 15.4235 15.5493ZM15.836 11.3024C15.461 12.793 13.1735 12.0337 12.4329 11.8462L13.0891 9.22117C13.8297 9.40867 16.2204 9.75554 15.836 11.3024Z" fill="white"/>
</svg>
