<svg width="28" height="28" viewBox="0 0 28 28" fill="none" xmlns="http://www.w3.org/2000/svg">
<path d="M27.5813 17.3857C25.7108 24.8897 18.108 29.4513 10.6147 27.5807C3.11051 25.7101 -1.45108 18.1077 0.41956 10.6145C2.29009 3.11051 9.88181 -1.45108 17.386 0.419561C24.8793 2.27915 29.452 9.88159 27.5813 17.3857Z" fill="url(#paint0_linear)"/>
<path d="M20.6659 12.2555C20.9393 10.3961 19.5284 9.38988 17.5815 8.72269L18.2159 6.19613L16.6846 5.81332L16.0721 8.27426C15.6675 8.17582 15.2518 8.07738 14.8362 7.98988L15.4487 5.51801L13.9175 5.13519L13.294 7.65082C12.9549 7.57426 12.6268 7.49769 12.3096 7.42113V7.41019L10.1878 6.88519L9.78307 8.52582C9.78307 8.52582 10.9206 8.78832 10.8987 8.79926C11.5221 8.95238 11.6315 9.36801 11.6096 9.69613L10.8878 12.5727C10.9315 12.5836 10.9862 12.5946 11.0518 12.6274C10.9971 12.6164 10.9424 12.6055 10.8878 12.5836L9.88151 16.6086C9.80495 16.7946 9.60807 17.0789 9.18151 16.9696C9.19245 16.9914 8.06589 16.6961 8.06589 16.6961L7.30026 18.4571L9.30182 18.9602C9.6737 19.0586 10.0346 19.1461 10.3956 19.2446L9.7612 21.793L11.2925 22.1758L11.9268 19.6493C12.3424 19.7586 12.7581 19.868 13.1518 19.9664L12.5284 22.4821L14.0596 22.8649L14.694 20.3164C17.319 20.8086 19.2878 20.6118 20.1081 18.2383C20.7753 16.3352 20.0753 15.2305 18.6971 14.5086C19.7143 14.2789 20.469 13.6118 20.6659 12.2555ZM17.155 17.1774C16.6846 19.0805 13.469 18.0524 12.4299 17.7899L13.2721 14.4102C14.3112 14.6727 17.6581 15.1868 17.155 17.1774ZM17.6362 12.2227C17.1987 13.9618 14.53 13.0758 13.6659 12.8571L14.4315 9.79457C15.2956 10.0133 18.0846 10.418 17.6362 12.2227Z" fill="white"/>
<defs>
<linearGradient id="paint0_linear" x1="13.9926" y1="-0.00659792" x2="13.9926" y2="27.9973" gradientUnits="userSpaceOnUse">
<stop stop-color="#F9AA4B"/>
<stop offset="1" stop-color="#F7931A"/>
</linearGradient>
</defs>
</svg>
