<svg width="32" height="32" viewBox="0 0 32 32" fill="none" xmlns="http://www.w3.org/2000/svg">
<path d="M31.5215 19.8694C29.3837 28.4454 20.6949 33.6586 12.1311 31.5207C3.55485 29.383 -1.6584 20.6945 0.47948 12.1309C2.61723 3.55486 11.2935 -1.65839 19.8697 0.479481C28.4335 2.60473 33.6594 11.2932 31.5215 19.8694Z" fill="#2E2E2E"/>
<path d="M23.6181 14.0063C23.9306 11.8813 22.3181 10.7313 20.0931 9.96878L20.8181 7.08127L19.0681 6.64377L18.3681 9.45628C17.9056 9.34378 17.4306 9.23128 16.9556 9.13128L17.6556 6.30627L15.9056 5.86877L15.1931 8.74377C14.8056 8.65627 14.4306 8.56877 14.0681 8.48127V8.46877L11.6431 7.86877L11.1806 9.74377C11.1806 9.74377 12.4806 10.0438 12.4556 10.0563C13.1681 10.2313 13.2931 10.7063 13.2681 11.0813L12.4431 14.3688C12.4931 14.3813 12.5556 14.3938 12.6306 14.4313C12.5681 14.4188 12.5056 14.4063 12.4431 14.3813L11.2931 18.9813C11.2056 19.1938 10.9806 19.5188 10.4931 19.3938C10.5056 19.4188 9.21814 19.0813 9.21814 19.0813L8.34314 21.0938L10.6306 21.6688C11.0556 21.7813 11.4681 21.8813 11.8806 21.9938L11.1556 24.9063L12.9056 25.3438L13.6306 22.4563C14.1056 22.5813 14.5806 22.7063 15.0306 22.8188L14.3181 25.6938L16.0681 26.1313L16.7931 23.2188C19.7931 23.7813 22.0431 23.5563 22.9806 20.8438C23.7431 18.6688 22.9431 17.4063 21.3681 16.5813C22.5306 16.3188 23.3931 15.5563 23.6181 14.0063ZM19.6056 19.6313C19.0681 21.8063 15.3931 20.6313 14.2056 20.3313L15.1681 16.4688C16.3556 16.7688 20.1806 17.3563 19.6056 19.6313ZM20.1556 13.9688C19.6556 15.9563 16.6056 14.9438 15.6181 14.6938L16.4931 11.1938C17.4806 11.4438 20.6681 11.9063 20.1556 13.9688Z" fill="white"/>
</svg>
