<svg width="176" height="14" viewBox="0 0 176 14" fill="none" xmlns="http://www.w3.org/2000/svg">
<path d="M47.3637 0.589514H50.3878L41.0032 13.3887L31.6185 0.589514H34.6427L41.0032 9.2576L47.3637 0.589514ZM55.291 12.6847H52.8704V0.661401H55.291V12.6847ZM73.5498 0.589514H76.574L67.1893 13.3887L57.8046 0.589514H60.8288L67.1893 9.2576L73.5498 0.589514ZM95.6452 3.02715H81.4999V5.35273L90.9322 5.38868V7.88973L81.5082 7.85379V10.1794H95.6452V12.6783H79.0566V0.528208H95.6452V3.02715ZM113.267 0.515523H115.711V12.4902L101.567 4.93624V12.6593H99.1221V0.684654L113.265 8.23857V0.515523H113.267ZM119.19 0.390788H135.776V2.89819H128.702V12.5768H126.259V2.89819H119.188V0.390788H119.19ZM155.864 0.403473L155.908 6.47113C155.909 7.15347 155.777 7.82926 155.521 8.45929C155.265 9.08932 154.889 9.66105 154.415 10.1413C153.382 11.228 151.356 12.5282 147.623 12.5557H147.513C144.689 12.5557 142.329 11.7269 140.861 10.2132C140.375 9.72919 139.988 9.15079 139.722 8.51187C139.457 7.87295 139.32 7.18635 139.317 6.49227L139.274 0.433068L141.717 0.414041L141.762 6.49227V6.50707C141.764 6.87234 141.838 7.23351 141.98 7.56861C142.122 7.90371 142.329 8.20573 142.589 8.45632C143.608 9.5134 145.386 10.0758 147.598 10.061C149.855 10.0441 151.654 9.4521 152.662 8.39713C152.913 8.1532 153.112 7.86003 153.249 7.53523C153.386 7.21043 153.457 6.8607 153.458 6.50707L153.415 0.437294L155.864 0.403473ZM162.307 3.08423C162.08 3.21108 161.849 3.42673 161.849 4.05252C161.849 4.53878 162.002 4.80516 162.396 4.99967C162.67 5.1264 162.965 5.19818 163.265 5.21108L172.153 5.24702C173.697 5.24702 176 6.22165 176 8.90664C176 11.5916 173.861 12.5684 172.422 12.5684H159.403V10.0715H172.401C172.641 10.0554 172.874 9.98917 173.087 9.87705C173.315 9.74808 173.546 9.53243 173.546 8.90876C173.546 8.4225 173.393 8.15612 172.999 7.96161C172.725 7.83468 172.43 7.76289 172.13 7.7502L163.254 7.71003C161.706 7.71003 159.403 6.7354 159.403 4.05041C159.403 1.36542 161.543 0.388672 162.981 0.388672H175.99V2.89819H162.992C162.752 2.91334 162.518 2.97959 162.305 3.09268L162.307 3.08423Z" fill="white"/>
<path d="M20.915 6.79904V6.7039C20.915 6.6447 20.915 6.5834 20.915 6.5242C20.915 6.40369 20.915 6.2874 20.9006 6.17112C20.8861 6.05485 20.8737 5.9428 20.8613 5.83075C20.8501 5.72117 20.8322 5.61243 20.8075 5.50517C20.6678 4.81178 20.4066 4.14996 20.0365 3.55169C19.8918 3.3297 19.7575 3.15422 19.6686 3.0316C19.5797 2.90898 19.5363 2.87726 19.528 2.87092C19.505 2.84544 19.4745 2.82837 19.4412 2.8223L19.4701 2.7927C18.668 2.00565 17.6574 1.47708 16.564 1.2727C15.4706 1.06833 14.3425 1.19717 13.3201 1.6432C12.2976 2.08923 11.426 2.83279 10.8134 3.78141C10.2008 4.73004 9.87433 5.84189 9.87459 6.97874C9.87438 7.87952 9.61597 8.76049 9.13132 9.51264C8.64667 10.2648 7.95705 10.8551 7.14778 11.2106C6.33852 11.566 5.44511 11.671 4.57811 11.5126C3.7111 11.3541 2.90852 10.9392 2.26969 10.3191L2.24902 10.2895L2.10018 10.1373C2.03404 10.0527 1.93688 9.94068 1.81492 9.78212C1.48224 9.32045 1.23366 8.80122 1.0811 8.24935C1.05389 8.163 1.03316 8.07465 1.01909 7.98508C1.00048 7.89417 0.981878 7.80115 0.965341 7.70813C0.948804 7.6151 0.946736 7.51362 0.934334 7.41637L0.921932 7.26626V7.19015V7.17113C0.921932 7.17113 0.921932 7.21129 0.921932 7.18804V7.12673C0.917475 6.90574 0.927142 6.68469 0.950871 6.465C0.965341 6.3614 0.967407 6.25358 0.990145 6.1521C1.01288 6.05062 1.03562 5.94069 1.05836 5.82441C1.17004 5.37301 1.34405 4.94018 1.57514 4.539C1.8196 4.12118 2.12176 3.74165 2.47227 3.41214C2.82988 3.08609 3.22987 2.81218 3.66085 2.5982C4.08782 2.3973 4.53893 2.25511 5.00241 2.17536C5.1161 2.15422 5.22979 2.1521 5.34142 2.13941L5.51092 2.12251H5.67215C5.89324 2.11971 6.11425 2.13242 6.33363 2.16056L6.63956 2.20495C6.73994 2.22271 6.83931 2.246 6.93723 2.27472L7.22455 2.34873C7.31551 2.38044 7.40233 2.41849 7.48914 2.4502L7.74753 2.55168C7.82815 2.58973 7.90463 2.63202 7.98112 2.67219C8.12542 2.74191 8.26371 2.82396 8.39454 2.91744C8.52063 3.00623 8.64466 3.08022 8.75008 3.16268L9.02914 3.40158C9.10425 3.46541 9.17344 3.53618 9.23585 3.61299C9.2958 3.6743 9.34541 3.72927 9.38675 3.77367L9.51285 3.90686C9.51285 3.90686 9.4715 3.85824 9.39709 3.7631L9.25653 3.59186C9.19516 3.51089 9.12589 3.4365 9.04981 3.36986C8.9692 3.28952 8.88238 3.20073 8.78316 3.10559C8.68393 3.01045 8.56404 2.928 8.44208 2.82863C8.31163 2.72406 8.1734 2.63006 8.02866 2.54746C7.95424 2.50095 7.87776 2.4502 7.79715 2.4058L7.54082 2.28319C7.45194 2.24302 7.36305 2.19439 7.27003 2.15633L6.97857 2.05697C6.87841 2.01886 6.77628 1.98639 6.67264 1.95972L6.34603 1.88995C6.12384 1.84348 5.89861 1.8138 5.67215 1.80115H5.5874C5.57022 1.79944 5.55291 1.79944 5.53572 1.80115H5.49025H5.31248C5.19258 1.80115 5.06856 1.80115 4.9466 1.80115C4.43769 1.84636 3.93707 1.96156 3.45828 2.14365C2.96367 2.34663 2.49842 2.61762 2.07538 2.94914C1.65095 3.29741 1.27902 3.70774 0.971542 4.1669C0.669814 4.61068 0.433045 5.09714 0.268724 5.61088C0.231516 5.73773 0.196375 5.86457 0.159167 5.98719C0.121959 6.10982 0.107489 6.25146 0.0826832 6.38042C0.0423652 6.61618 0.0147632 6.85405 0 7.09291V7.30433C0 7.36352 0 7.42483 0 7.48402C0 7.60453 -5.04389e-07 7.72081 0.0124022 7.83709C0.0248048 7.95336 0.039274 8.06753 0.0537438 8.17746C0.063924 8.28718 0.0818867 8.396 0.107489 8.50305C0.247219 9.1971 0.508427 9.85961 0.878522 10.4587C1.02322 10.6806 1.15758 10.8561 1.24647 10.9787L1.38703 11.1415L1.41804 11.1669C2.21811 11.9602 3.22893 12.4949 4.3243 12.7043C5.41968 12.9136 6.55108 12.7883 7.57727 12.3441C8.60346 11.8998 9.47897 11.1562 10.0945 10.2062C10.71 9.25614 11.0383 8.14169 11.0384 7.00199C11.0362 6.10261 11.292 5.22234 11.774 4.47013C12.2561 3.71792 12.9432 3.12678 13.7504 2.76992C14.5576 2.41306 15.4494 2.30614 16.3153 2.46237C17.1813 2.61861 17.9835 3.03115 18.6226 3.64893C18.6299 3.6753 18.6426 3.69981 18.6598 3.72082L18.8086 3.87303C18.8727 3.9576 18.9719 4.06965 19.0939 4.22821C19.4266 4.68955 19.6746 5.20892 19.8257 5.76098C19.8545 5.84699 19.876 5.93541 19.8897 6.02525C19.9063 6.11616 19.9249 6.20918 19.9435 6.3022C19.9621 6.39523 19.9621 6.49671 19.9724 6.59396L19.9869 6.74407V6.82017V6.87938C19.9914 7.10036 19.9817 7.32141 19.958 7.54111C19.9435 7.6447 19.9414 7.75252 19.9187 7.854C19.8959 7.95548 19.8732 8.06542 19.8484 8.1817C19.7386 8.63371 19.5644 9.0668 19.3316 9.46711C19.0879 9.88487 18.7864 10.2644 18.4366 10.594C18.079 10.92 17.679 11.1939 17.248 11.4079C16.821 11.6088 16.3699 11.751 15.9064 11.8307C15.7927 11.8519 15.679 11.854 15.5674 11.8667L15.3979 11.8815H15.3545H15.2367C15.0156 11.8843 14.7946 11.8716 14.5752 11.8434L14.2672 11.8011C14.1676 11.7831 14.0689 11.7599 13.9716 11.7314L13.6843 11.6574C13.5933 11.6257 13.5044 11.5876 13.4176 11.5559L13.1613 11.4544C13.0807 11.4164 13.0042 11.3741 12.9277 11.3339C12.7832 11.2646 12.6448 11.1826 12.5143 11.0887C12.3882 10.9999 12.2642 10.9259 12.1587 10.8434L11.8797 10.6045C11.8046 10.5407 11.7354 10.4699 11.673 10.3931C11.613 10.3297 11.5614 10.2768 11.5221 10.2324L11.396 10.0992L11.5117 10.243L11.6523 10.4143C11.7147 10.4911 11.7839 10.5619 11.859 10.6257C11.9396 10.706 12.0265 10.7948 12.1257 10.8899C12.2249 10.9851 12.3448 11.0675 12.4667 11.1669C12.5972 11.2715 12.7354 11.3655 12.8802 11.4481C12.9546 11.4946 13.0311 11.5453 13.1117 11.5897L13.368 11.7123C13.4569 11.7525 13.5458 11.8011 13.6388 11.8392L13.9303 11.9386C14.0304 11.9767 14.1326 12.0091 14.2362 12.0358L14.5628 12.1056C14.785 12.152 15.0102 12.1817 15.2367 12.1944H15.3214C15.3386 12.1961 15.3559 12.1961 15.3731 12.1944H15.4186H15.5964C15.7162 12.1944 15.8403 12.1944 15.9622 12.1838C16.4711 12.1386 16.9718 12.0234 17.4506 11.8413C17.9452 11.6383 18.4104 11.3673 18.8335 11.0358C19.2558 10.6932 19.6269 10.2894 19.9352 9.83709C20.237 9.39331 20.4737 8.90685 20.638 8.39311C20.6752 8.26626 20.7104 8.13942 20.7476 8.0168C20.7848 7.89418 20.7993 7.75252 20.8241 7.62355C20.8644 7.38779 20.892 7.14994 20.9068 6.91108V6.82229L20.915 6.79904Z" fill="white"/>
</svg>
