<svg width="45" height="25" viewBox="0 0 45 25" fill="none" xmlns="http://www.w3.org/2000/svg">
<path d="M45 11.8244V11.6242C45 11.4997 45 11.3707 45 11.2462C45 10.9927 45 10.7481 44.9689 10.5035C44.9377 10.2588 44.9111 10.0231 44.8844 9.78741C44.8603 9.5569 44.8217 9.32814 44.7687 9.1025C44.4681 7.64382 43.9061 6.25157 43.1098 4.993C42.7985 4.52601 42.5094 4.15686 42.3181 3.8989C42.1269 3.64095 42.0335 3.57423 42.0157 3.56089C41.9663 3.5073 41.9007 3.47137 41.8289 3.4586L41.8912 3.39633C40.1654 1.74063 37.9911 0.628692 35.6385 0.198757C33.2859 -0.231177 30.8588 0.0398509 28.659 0.978158C26.4592 1.91647 24.5837 3.48067 23.2656 5.47627C21.9476 7.47187 21.2452 9.81084 21.2458 12.2024C21.2454 14.0974 20.6894 15.9506 19.6466 17.5329C18.6038 19.1152 17.1201 20.357 15.3789 21.1048C13.6377 21.8526 11.7155 22.0735 9.85008 21.7402C7.98465 21.4069 6.25787 20.534 4.88337 19.2295L4.8389 19.1672L4.51868 18.847C4.37636 18.6691 4.16733 18.4334 3.90492 18.0998C3.18913 17.1286 2.65429 16.0363 2.32605 14.8754C2.26751 14.6937 2.2229 14.5079 2.19263 14.3194C2.1526 14.1282 2.11257 13.9325 2.07699 13.7368C2.04141 13.5411 2.03696 13.3276 2.01028 13.123L1.98359 12.8073V12.6472V12.6071C1.98359 12.6071 1.98359 12.6916 1.98359 12.6427V12.5137C1.97401 12.0489 1.9948 11.5838 2.04586 11.1217C2.07699 10.9037 2.08144 10.6769 2.13036 10.4634C2.17928 10.25 2.22821 10.0187 2.27713 9.77408C2.51741 8.82447 2.8918 7.91395 3.38901 7.06998C3.91499 6.19104 4.5651 5.39262 5.31923 4.69945C6.08867 4.01354 6.94926 3.43732 7.87655 2.98717C8.79521 2.56454 9.7658 2.26543 10.763 2.09767C11.0076 2.05319 11.2522 2.04872 11.4924 2.02204L11.8571 1.98648H12.204C12.6797 1.98058 13.1552 2.00732 13.6272 2.06653L14.2854 2.15991C14.5014 2.19726 14.7152 2.24626 14.9259 2.30669L15.5441 2.46236C15.7398 2.52908 15.9266 2.60912 16.1134 2.67584L16.6693 2.88931C16.8428 2.96936 17.0073 3.05832 17.1719 3.14282C17.4823 3.28949 17.7799 3.46209 18.0614 3.65875C18.3327 3.84554 18.5995 4.00119 18.8264 4.17465L19.4268 4.67722C19.5884 4.81149 19.7372 4.96037 19.8715 5.12197C20.0005 5.25095 20.1072 5.36659 20.1962 5.45999L20.4675 5.74018C20.4675 5.74018 20.3785 5.63789 20.2184 5.43775L19.916 5.07751C19.7839 4.90717 19.6349 4.75068 19.4712 4.6105C19.2978 4.44149 19.111 4.25469 18.8975 4.05456C18.684 3.85442 18.4261 3.68097 18.1637 3.47193C17.883 3.25195 17.5856 3.05419 17.2742 2.88043C17.1141 2.78259 16.9495 2.67583 16.776 2.58243L16.2245 2.32449C16.0333 2.23999 15.8421 2.13768 15.6419 2.05763L15.0148 1.84861C14.7993 1.76843 14.5796 1.70012 14.3566 1.64401L13.6539 1.49723C13.1758 1.39948 12.6912 1.33706 12.204 1.31045H12.0216C11.9847 1.30685 11.9474 1.30685 11.9105 1.31045H11.8126H11.4301C11.1722 1.31045 10.9053 1.31045 10.6429 1.31045C9.54797 1.40554 8.47085 1.64789 7.4407 2.03094C6.37651 2.45795 5.3755 3.02804 4.46531 3.72544C3.55213 4.45809 2.75188 5.32129 2.09033 6.28722C1.44115 7.22079 0.931723 8.24414 0.578175 9.32488C0.49812 9.59173 0.422513 9.85857 0.342458 10.1165C0.262402 10.3745 0.231268 10.6725 0.177898 10.9438C0.0911513 11.4397 0.031764 11.9401 0 12.4426V12.8873C0 13.0119 0 13.1408 0 13.2654C0 13.5189 -1.08522e-06 13.7635 0.026684 14.0081C0.0533691 14.2527 0.0845004 14.4929 0.115633 14.7241C0.137536 14.9549 0.176184 15.1839 0.23127 15.4091C0.531907 16.8691 1.09391 18.2628 1.8902 19.523C2.20152 19.99 2.49061 20.3591 2.68185 20.6171L2.98429 20.9596L3.051 21.0129C4.7724 22.6818 6.94724 23.8066 9.30401 24.247C11.6608 24.6875 14.0951 24.4239 16.303 23.4893C18.5109 22.5547 20.3946 20.9905 21.7189 18.9919C23.0433 16.9933 23.7496 14.6489 23.7498 12.2513C23.7451 10.3593 24.2954 8.50752 25.3326 6.92511C26.3697 5.34269 27.8481 4.09914 29.5848 3.34842C31.3215 2.5977 33.2402 2.37277 35.1035 2.70143C36.9667 3.0301 38.6927 3.89795 40.0677 5.19757C40.0834 5.25305 40.1107 5.3046 40.1478 5.3488L40.468 5.66901C40.6058 5.84691 40.8193 6.08262 41.0817 6.41619C41.7976 7.3867 42.3311 8.47928 42.6562 9.64064C42.7183 9.82157 42.7644 10.0076 42.794 10.1966C42.8296 10.3878 42.8696 10.5835 42.9097 10.7792C42.9497 10.9749 42.9497 11.1884 42.9719 11.393L43.0031 11.7087V11.8688V11.9934C43.0127 12.4583 42.9919 12.9233 42.9408 13.3855C42.9097 13.6034 42.9052 13.8302 42.8563 14.0437C42.8074 14.2572 42.7585 14.4884 42.7051 14.733C42.4687 15.6839 42.0941 16.595 41.5932 17.4371C41.0688 18.316 40.4202 19.1144 39.6674 19.8077C38.898 20.4936 38.0374 21.0698 37.1101 21.52C36.1914 21.9426 35.2209 22.2417 34.2237 22.4095C33.979 22.4539 33.7344 22.4584 33.4943 22.4851L33.1296 22.5162H33.0362H32.7827C32.307 22.5221 31.8315 22.4954 31.3595 22.4361L30.6968 22.3472C30.4824 22.3093 30.2701 22.2604 30.0608 22.2004L29.4426 22.0448C29.2469 21.9781 29.0556 21.898 28.8689 21.8313L28.3174 21.6178C28.1439 21.5377 27.9793 21.4488 27.8148 21.3643C27.5038 21.2186 27.2062 21.0459 26.9253 20.8484C26.654 20.6616 26.3871 20.5059 26.1603 20.3325L25.5599 19.8299C25.3983 19.6956 25.2494 19.5468 25.1151 19.3852C24.9862 19.2517 24.875 19.1405 24.7905 19.0471L24.5192 18.7669L24.7682 19.0694L25.0707 19.4296C25.2048 19.5913 25.3537 19.7402 25.5154 19.8744C25.6889 20.0434 25.8757 20.2302 26.0892 20.4303C26.3026 20.6305 26.5606 20.8039 26.823 21.0129C27.1037 21.2329 27.4011 21.4307 27.7125 21.6045C27.8726 21.7023 28.0372 21.809 28.2106 21.9024L28.7621 22.1604C28.9534 22.2449 29.1446 22.3472 29.3447 22.4272L29.9718 22.6363C30.1873 22.7165 30.4071 22.7847 30.6301 22.8409L31.3328 22.9876C31.8108 23.0854 32.2954 23.1478 32.7827 23.1744H32.965C33.002 23.178 33.0392 23.178 33.0762 23.1744H33.174H33.5565C33.8145 23.1744 34.0813 23.1744 34.3437 23.1522C35.4387 23.0571 36.5158 22.8148 37.546 22.4317C38.6101 22.0047 39.6112 21.4346 40.5214 20.7372C41.43 20.0164 42.2286 19.1669 42.8919 18.2155C43.5411 17.2819 44.0505 16.2585 44.404 15.1778C44.4841 14.9109 44.5597 14.6441 44.6398 14.3862C44.7198 14.1282 44.7509 13.8302 44.8043 13.5589C44.8911 13.0629 44.9504 12.5626 44.9822 12.0601V11.8733L45 11.8244Z" fill="white"/>
</svg>
