<svg width="25" height="25" viewBox="0 0 25 25" fill="none" xmlns="http://www.w3.org/2000/svg">
<path d="M24.3604 15.7279C22.7571 22.1599 16.2404 26.0698 9.8176 24.4664C3.38541 22.8631 -0.524528 16.3467 1.07888 9.92398C2.68219 3.49198 9.18938 -0.41796 15.6216 1.18545C22.0444 2.77938 25.9638 9.29576 24.3604 15.7279Z" fill="#4D4D4D"/>
<path d="M18.4328 11.3305C18.6672 9.73679 17.4578 8.87429 15.7891 8.30242L16.3328 6.13679L15.0203 5.80867L14.4953 7.91804C14.1484 7.83367 13.7922 7.74929 13.4359 7.67429L13.9609 5.55554L12.6484 5.22742L12.1141 7.38367C11.8234 7.31804 11.5422 7.25242 11.2703 7.18679V7.17742L9.45156 6.72742L9.10469 8.13367C9.10469 8.13367 10.0797 8.35867 10.0609 8.36804C10.5953 8.49929 10.6891 8.85554 10.6703 9.13679L10.0516 11.6024C10.0891 11.6118 10.1359 11.6212 10.1922 11.6493C10.1453 11.6399 10.0984 11.6305 10.0516 11.6118L9.18906 15.0618C9.12344 15.2212 8.95469 15.4649 8.58906 15.3712C8.59844 15.3899 7.63281 15.1368 7.63281 15.1368L6.97656 16.6462L8.69219 17.0774C9.01094 17.1618 9.32031 17.2368 9.62969 17.3212L9.08594 19.5055L10.3984 19.8337L10.9422 17.668C11.2984 17.7618 11.6547 17.8555 11.9922 17.9399L11.4578 20.0962L12.7703 20.4243L13.3141 18.2399C15.5641 18.6618 17.2516 18.493 17.9547 16.4587C18.5266 14.8274 17.9266 13.8805 16.7453 13.2618C17.6172 13.0649 18.2641 12.493 18.4328 11.3305ZM15.4234 15.5493C15.0203 17.1805 12.2641 16.2993 11.3734 16.0743L12.0953 13.1774C12.9859 13.4024 15.8547 13.843 15.4234 15.5493ZM15.8359 11.3024C15.4609 12.793 13.1734 12.0337 12.4328 11.8462L13.0891 9.22117C13.8297 9.40867 16.2203 9.75554 15.8359 11.3024Z" fill="white"/>
</svg>
