<svg width="118" height="6" viewBox="0 0 118 6" fill="none" xmlns="http://www.w3.org/2000/svg">
<path d="M31.6114 0.204043H33.6298L27.3663 5.18294L21.1028 0.204043H23.1212L27.3663 3.57595L31.6114 0.204043ZM36.9023 4.90908H35.2868V0.232008H36.9023V4.90908ZM49.0886 0.204043H51.107L44.8435 5.18294L38.5799 0.204043H40.5983L44.8435 3.57595L49.0886 0.204043ZM63.8354 1.15229H54.3946V2.05694L60.6899 2.07093V3.04384L54.4002 3.02986V3.93452H63.8354V4.90661H52.7639V0.180195H63.8354V1.15229ZM75.5968 0.175261H77.2275V4.83342L67.7881 1.89493V4.89921H66.156V0.241053L75.5954 3.17954V0.175261H75.5968ZM79.5494 0.126739H90.6196V1.10212H85.8985V4.86714H84.2678V1.10212H79.5481V0.126739H79.5494ZM104.027 0.131673L104.056 2.492C104.057 2.75744 103.969 3.02032 103.798 3.2654C103.627 3.51048 103.376 3.73289 103.06 3.91971C102.37 4.34243 101.018 4.84822 98.5262 4.85891H98.4531C96.5685 4.85891 94.993 4.53652 94.0135 3.94767C93.6888 3.7594 93.4305 3.5344 93.2535 3.28586C93.0765 3.03731 92.9845 2.77023 92.9829 2.50023L92.9539 0.143186L94.5846 0.135784L94.615 2.50023V2.50598C94.6159 2.64808 94.6653 2.78857 94.7602 2.91893C94.8551 3.04928 94.9934 3.16677 95.1668 3.26425C95.847 3.67545 97.0335 3.89422 98.5097 3.88846C100.016 3.88188 101.217 3.65161 101.89 3.24122C102.057 3.14633 102.19 3.03229 102.281 2.90594C102.373 2.77959 102.42 2.64355 102.421 2.50598V2.50598L102.392 0.144829L104.027 0.131673ZM108.327 1.17449C108.175 1.22384 108.021 1.30773 108.021 1.55116C108.021 1.74032 108.123 1.84394 108.386 1.9196C108.569 1.9689 108.766 1.99682 108.966 2.00184L114.898 2.01582C115.929 2.01582 117.466 2.39496 117.466 3.43942C117.466 4.48389 116.038 4.86384 115.078 4.86384H106.389V3.89257H115.064C115.224 3.88628 115.38 3.86053 115.522 3.81691C115.674 3.76674 115.828 3.68286 115.828 3.44024C115.828 3.25109 115.726 3.14747 115.463 3.0718C115.28 3.02243 115.083 2.9945 114.883 2.98956L108.959 2.97394C107.926 2.97394 106.389 2.5948 106.389 1.55034C106.389 0.505872 107.817 0.125916 108.777 0.125916H117.459V1.10212H108.784C108.624 1.10802 108.468 1.13379 108.326 1.17778L108.327 1.17449Z" fill="white"/>
<path d="M13.9591 2.61949V2.58248C13.9591 2.55945 13.9591 2.53561 13.9591 2.51258C13.9591 2.4657 13.9591 2.42047 13.9494 2.37523C13.9398 2.33 13.9315 2.28641 13.9232 2.24283C13.9158 2.2002 13.9038 2.1579 13.8874 2.11618C13.7941 1.84644 13.6198 1.58899 13.3728 1.35627C13.2762 1.26991 13.1865 1.20165 13.1272 1.15395C13.0679 1.10625 13.0389 1.09391 13.0334 1.09145C13.018 1.08154 12.9977 1.07489 12.9754 1.07253L12.9947 1.06102C12.4594 0.754853 11.7849 0.549238 11.0551 0.469737C10.3253 0.390235 9.57246 0.440352 8.89007 0.61386C8.20769 0.787367 7.6259 1.07661 7.21705 1.44563C6.8082 1.81465 6.59032 2.24716 6.59049 2.6894C6.59035 3.0398 6.41788 3.3825 6.09442 3.67509C5.77095 3.96767 5.31069 4.19731 4.77057 4.33558C4.23045 4.47386 3.63417 4.51471 3.05552 4.45307C2.47686 4.39144 1.94121 4.23002 1.51483 3.98881L1.50104 3.9773L1.4017 3.91808C1.35756 3.88518 1.29271 3.8416 1.21131 3.77992C0.989276 3.60033 0.823366 3.39835 0.721546 3.18367C0.703386 3.15008 0.68955 3.11571 0.680158 3.08086C0.667741 3.0455 0.655324 3.00932 0.644287 2.97313C0.63325 2.93694 0.63187 2.89747 0.623592 2.85964L0.615315 2.80124V2.77164V2.76424C0.615315 2.76424 0.615315 2.77986 0.615315 2.77081V2.74697C0.612341 2.661 0.618793 2.57501 0.63463 2.48955C0.644287 2.44925 0.645666 2.40731 0.660842 2.36783C0.676018 2.32836 0.691194 2.28559 0.70637 2.24036C0.780905 2.06476 0.897042 1.89639 1.05128 1.74033C1.21444 1.5778 1.41611 1.43016 1.65004 1.30198C1.88872 1.17515 2.15567 1.0686 2.44332 0.985356C2.72829 0.907205 3.02937 0.851897 3.3387 0.820874C3.41458 0.81265 3.49046 0.811824 3.56496 0.806889L3.67809 0.800313H3.7857C3.93326 0.799222 4.08077 0.804168 4.22719 0.815116L4.43137 0.832384C4.49836 0.839291 4.56468 0.848352 4.63004 0.859525L4.82181 0.888312C4.88251 0.900648 4.94045 0.91545 4.9984 0.927786L5.17085 0.967261C5.22466 0.982064 5.27571 0.998513 5.32675 1.01414C5.42306 1.04126 5.51536 1.07318 5.60268 1.10954C5.68683 1.14408 5.76961 1.17287 5.83997 1.20494L6.02622 1.29787C6.07635 1.3227 6.12253 1.35023 6.16419 1.38011C6.20419 1.40396 6.23731 1.42535 6.2649 1.44262L6.34906 1.49443C6.34906 1.49443 6.32146 1.47552 6.2718 1.43851L6.17798 1.37189C6.13702 1.34039 6.0908 1.31146 6.04002 1.28553C5.98621 1.25428 5.92827 1.21974 5.86205 1.18273C5.79582 1.14572 5.71581 1.11365 5.63441 1.075C5.54734 1.03432 5.45509 0.997751 5.35848 0.965619C5.30882 0.947526 5.25777 0.927785 5.20396 0.910514L5.03289 0.862818C4.97357 0.847192 4.91424 0.828273 4.85216 0.81347L4.65763 0.774819C4.59078 0.759993 4.52262 0.747362 4.45345 0.736986L4.23546 0.709845C4.08717 0.691769 3.93684 0.680226 3.7857 0.675305H3.72914C3.71767 0.674639 3.70612 0.674639 3.69465 0.675305H3.6643H3.54565C3.46563 0.675305 3.38285 0.675305 3.30145 0.675305C2.9618 0.692889 2.62768 0.737703 2.30812 0.808536C1.97801 0.887497 1.66749 0.992913 1.38515 1.12187C1.10188 1.25735 0.85364 1.41697 0.648426 1.59559C0.447047 1.76822 0.289023 1.95745 0.179351 2.1573C0.154518 2.20664 0.131064 2.25598 0.106231 2.30368C0.0813977 2.35138 0.0717399 2.40648 0.0551844 2.45665C0.0282753 2.54836 0.00985325 2.64089 0 2.73381V2.81605C0 2.83908 0 2.86293 0 2.88595C0 2.93283 -3.36639e-07 2.97806 0.00827744 3.02329C0.0165552 3.06853 0.0262122 3.11294 0.0358696 3.1557C0.0426641 3.19838 0.0546527 3.24071 0.0717403 3.28236C0.164999 3.55234 0.339334 3.81006 0.586343 4.04309C0.682917 4.12944 0.772593 4.1977 0.831917 4.2454L0.925732 4.30873L0.946426 4.3186C1.48041 4.62719 2.15505 4.8352 2.88612 4.91663C3.6172 4.99807 4.37232 4.94934 5.05722 4.77652C5.74211 4.6037 6.32645 4.31445 6.73726 3.94488C7.14808 3.57531 7.36719 3.14179 7.36722 2.69844C7.36579 2.34858 7.5365 2.00615 7.85822 1.71354C8.17994 1.42093 8.63855 1.19098 9.17728 1.05216C9.716 0.913338 10.3112 0.871744 10.8892 0.93252C11.4672 0.993296 12.0026 1.15377 12.4291 1.39409C12.434 1.40435 12.4424 1.41388 12.4539 1.42206L12.5533 1.48127C12.596 1.51417 12.6622 1.55775 12.7436 1.61943C12.9657 1.7989 13.1312 2.00093 13.232 2.21568C13.2513 2.24914 13.2656 2.28354 13.2748 2.31849C13.2858 2.35385 13.2983 2.39004 13.3107 2.42622C13.3231 2.46241 13.3231 2.50188 13.33 2.53972L13.3396 2.59811V2.62771V2.65074C13.3426 2.73671 13.3362 2.8227 13.3203 2.90816C13.3107 2.94846 13.3093 2.9904 13.2941 3.02988C13.2789 3.06935 13.2638 3.11212 13.2472 3.15735C13.1739 3.33318 13.0577 3.50166 12.9023 3.65738C12.7396 3.81989 12.5384 3.96753 12.3049 4.09573C12.0662 4.22256 11.7993 4.32911 11.5116 4.41235C11.2267 4.4905 10.9256 4.54581 10.6163 4.57684C10.5404 4.58506 10.4645 4.58588 10.39 4.59082L10.2769 4.59657H10.2479H10.1693C10.0217 4.59766 9.87419 4.59272 9.72777 4.58177L9.52221 4.56532C9.4557 4.55832 9.38985 4.54927 9.32492 4.53818L9.13315 4.5094C9.07245 4.49706 9.01312 4.48226 8.95518 4.46992L8.7841 4.43044C8.7303 4.41564 8.67925 4.3992 8.6282 4.38357C8.53174 4.35662 8.43942 4.3247 8.35228 4.28817C8.26812 4.25363 8.18534 4.22484 8.11498 4.19277L7.92873 4.09984C7.87861 4.07501 7.83242 4.04748 7.79077 4.0176C7.75076 3.99292 7.71627 3.97236 7.69006 3.95509L7.6059 3.90328L7.68316 3.9592L7.77697 4.02582C7.81858 4.05572 7.86477 4.08325 7.91494 4.10806C7.96874 4.13931 8.02669 4.17385 8.09291 4.21086C8.15913 4.24787 8.23915 4.27994 8.32055 4.3186C8.40762 4.35928 8.49987 4.39585 8.59647 4.42798C8.64614 4.44607 8.69719 4.46581 8.75099 4.48308L8.92207 4.53078C8.98139 4.54641 9.04071 4.56532 9.1028 4.58012L9.29733 4.61878C9.36418 4.63361 9.43234 4.64623 9.50151 4.65661L9.71949 4.68375C9.86779 4.70182 10.0181 4.71337 10.1693 4.71829H10.2258C10.2373 4.71895 10.2488 4.71895 10.2603 4.71829H10.2907H10.4093C10.4893 4.71829 10.5721 4.71829 10.6535 4.71418C10.9932 4.69659 11.3273 4.65178 11.6468 4.58095C11.9769 4.50199 12.2875 4.39657 12.5698 4.26761C12.8517 4.13433 13.0994 3.97724 13.3052 3.8013C13.5065 3.62867 13.6646 3.43944 13.7742 3.23959C13.7991 3.19025 13.8225 3.1409 13.8473 3.0932C13.8722 3.0455 13.8818 2.9904 13.8984 2.94023C13.9253 2.84852 13.9437 2.756 13.9536 2.66308V2.62854L13.9591 2.61949Z" fill="white"/>
</svg>
