<svg width="28" height="28" viewBox="0 0 28 28" fill="none" xmlns="http://www.w3.org/2000/svg">
<path d="M14 0C21.732 0 28 6.268 28 14C28 21.732 21.732 28 14 28C6.268 28 0 21.732 0 14C0 6.268 6.268 0 14 0Z" fill="#1A82FF"/>
<path d="M19.1183 19.7648C17.9063 21.2496 16.2018 21.992 14.0047 21.992C11.8077 21.992 10.1029 21.2496 8.89033 19.7648C7.67753 18.2792 7.0714 16.3589 7.07193 14.004C7.07246 11.6491 7.67833 9.72906 8.88953 8.24399C10.1015 6.75839 11.8063 6.01572 14.0039 6.01599C16.2015 6.01626 17.9061 6.75892 19.1175 8.24399C20.3295 9.72879 20.9357 11.6488 20.9359 14.004C20.9362 16.3592 20.3303 18.2795 19.1183 19.7648Z" fill="white"/>
<path d="M13.9792 18.8872C14.5576 18.8872 15.0493 18.7296 15.4544 18.4144C15.8595 18.0992 16.1528 17.6717 16.3344 17.132C16.5157 16.592 16.6437 16.0744 16.7184 15.5792C16.7931 15.084 16.8301 14.5589 16.8296 14.004C16.8296 13.3208 16.7883 12.7093 16.7056 12.1696L11.7224 17.3624C12.1832 18.3784 12.9355 18.8866 13.9792 18.8872Z" fill="#1A82FF"/>
<path d="M14.0288 9.12085C13.4504 9.12085 12.9587 9.27845 12.5536 9.59364C12.1485 9.90883 11.8552 10.3363 11.6736 10.876C11.4912 11.416 11.3632 11.9336 11.2896 12.4288C11.2149 12.924 11.1779 13.449 11.1784 14.0039C11.1784 14.3695 11.1901 14.7146 11.2136 15.0391L15.9664 10.0872C15.5048 9.44324 14.8589 9.12112 14.0288 9.12085V9.12085Z" fill="#1A82FF"/>
<path d="M7.4592 18.9544L6.8472 18.3672L11.488 13.5296L12.1 14.1168L7.4592 18.9544ZM16.2032 13.9064L15.5912 13.3192L20.232 8.48157L20.844 9.06877L16.2032 13.9064Z" fill="#1A82FF"/>
</svg>
