<svg width="125" height="133" viewBox="0 0 125 133" fill="none" xmlns="http://www.w3.org/2000/svg">
<path d="M66.5 109.32C90.149 109.32 109.32 90.149 109.32 66.5C109.32 42.8511 90.149 23.6798 66.5 23.6798C42.851 23.6798 23.6798 42.8511 23.6798 66.5C23.6798 90.149 42.851 109.32 66.5 109.32Z" stroke="white" stroke-opacity="0.08" stroke-width="30" stroke-miterlimit="10"/>
<path d="M66.0368 15C58.1861 15.0024 50.4417 16.8312 43.4056 20.3443C36.3696 23.8574 30.2315 28.9601 25.4686 35.2558C20.7057 41.5514 17.4462 48.8704 15.9437 56.6436C14.4412 64.4168 14.736 72.4349 16.8053 80.0744C18.8747 87.714 22.6627 94.7692 27.8749 100.692C33.0871 106.614 39.5831 111.244 46.8578 114.221C54.1325 117.199 61.99 118.444 69.8193 117.86C77.6487 117.275 85.2389 114.877 92 110.852" stroke="#676767" stroke-width="30" stroke-miterlimit="10"/>
<path d="M67 15C53.2087 15 39.9823 20.4259 30.2304 30.084C20.4786 39.7421 15 52.8413 15 66.5C15 80.1586 20.4786 93.2579 30.2304 102.916C39.9823 112.574 53.2087 118 67 118" stroke="#B0B0B0" stroke-width="30" stroke-miterlimit="10"/>
</svg>
