<svg width="25" height="24" viewBox="0 0 25 24" fill="none" xmlns="http://www.w3.org/2000/svg">
<path d="M12.5764 8.87579C10.8561 8.87579 9.45219 10.2797 9.45219 12C9.45219 13.7203 10.8561 15.1242 12.5764 15.1242C14.2967 15.1242 15.7006 13.7203 15.7006 12C15.7006 10.2797 14.2967 8.87579 12.5764 8.87579ZM21.9467 12C21.9467 10.7063 21.9584 9.42423 21.8858 8.13283C21.8131 6.63283 21.4709 5.30158 20.3741 4.2047C19.2748 3.10548 17.9459 2.76564 16.4459 2.69298C15.1522 2.62033 13.8702 2.63204 12.5787 2.63204C11.285 2.63204 10.003 2.62033 8.71156 2.69298C7.21156 2.76564 5.88031 3.10783 4.78344 4.2047C3.68422 5.30392 3.34437 6.63283 3.27172 8.13283C3.19906 9.42658 3.21078 10.7086 3.21078 12C3.21078 13.2914 3.19906 14.5758 3.27172 15.8672C3.34437 17.3672 3.68656 18.6985 4.78344 19.7953C5.88266 20.8945 7.21156 21.2344 8.71156 21.307C10.0053 21.3797 11.2873 21.368 12.5787 21.368C13.8725 21.368 15.1545 21.3797 16.4459 21.307C17.9459 21.2344 19.2772 20.8922 20.3741 19.7953C21.4733 18.6961 21.8131 17.3672 21.8858 15.8672C21.9608 14.5758 21.9467 13.2938 21.9467 12V12ZM12.5764 16.807C9.91625 16.807 7.76937 14.6602 7.76937 12C7.76937 9.33986 9.91625 7.19298 12.5764 7.19298C15.2366 7.19298 17.3834 9.33986 17.3834 12C17.3834 14.6602 15.2366 16.807 12.5764 16.807ZM17.5803 8.11876C16.9592 8.11876 16.4577 7.6172 16.4577 6.99611C16.4577 6.37501 16.9592 5.87345 17.5803 5.87345C18.2014 5.87345 18.703 6.37501 18.703 6.99611C18.7032 7.14359 18.6742 7.28966 18.6179 7.42595C18.5615 7.56224 18.4788 7.68607 18.3746 7.79036C18.2703 7.89464 18.1464 7.97733 18.0102 8.03368C17.8739 8.09004 17.7278 8.11895 17.5803 8.11876V8.11876Z" fill="#F2F2F2"/>
</svg>
