<svg width="25" height="24" viewBox="0 0 25 24" fill="none" xmlns="http://www.w3.org/2000/svg">
<path d="M12.5763 8.87579C10.856 8.87579 9.45206 10.2797 9.45206 12C9.45206 13.7203 10.856 15.1242 12.5763 15.1242C14.2966 15.1242 15.7005 13.7203 15.7005 12C15.7005 10.2797 14.2966 8.87579 12.5763 8.87579ZM21.9466 12C21.9466 10.7063 21.9583 9.42423 21.8857 8.13283C21.813 6.63283 21.4708 5.30158 20.3739 4.2047C19.2747 3.10548 17.9458 2.76564 16.4458 2.69298C15.1521 2.62033 13.87 2.63204 12.5786 2.63204C11.2849 2.63204 10.0028 2.62033 8.71144 2.69298C7.21144 2.76564 5.88019 3.10783 4.78331 4.2047C3.6841 5.30392 3.34425 6.63283 3.2716 8.13283C3.19894 9.42658 3.21066 10.7086 3.21066 12C3.21066 13.2914 3.19894 14.5758 3.2716 15.8672C3.34425 17.3672 3.68644 18.6985 4.78331 19.7953C5.88253 20.8945 7.21144 21.2344 8.71144 21.307C10.0052 21.3797 11.2872 21.368 12.5786 21.368C13.8724 21.368 15.1544 21.3797 16.4458 21.307C17.9458 21.2344 19.2771 20.8922 20.3739 19.7953C21.4732 18.6961 21.813 17.3672 21.8857 15.8672C21.9607 14.5758 21.9466 13.2938 21.9466 12ZM12.5763 16.807C9.91613 16.807 7.76925 14.6602 7.76925 12C7.76925 9.33986 9.91613 7.19298 12.5763 7.19298C15.2364 7.19298 17.3833 9.33986 17.3833 12C17.3833 14.6602 15.2364 16.807 12.5763 16.807ZM17.5802 8.11876C16.9591 8.11876 16.4575 7.6172 16.4575 6.99611C16.4575 6.37501 16.9591 5.87345 17.5802 5.87345C18.2013 5.87345 18.7028 6.37501 18.7028 6.99611C18.703 7.14359 18.6741 7.28966 18.6178 7.42595C18.5614 7.56224 18.4787 7.68607 18.3744 7.79036C18.2702 7.89464 18.1463 7.97733 18.01 8.03368C17.8737 8.09004 17.7277 8.11895 17.5802 8.11876Z" fill="white"/>
</svg>
