<svg width="149" height="149" viewBox="0 0 149 149" fill="none" xmlns="http://www.w3.org/2000/svg">
<path d="M47.3806 69.9583H49.399L43.1355 78.3106L36.872 69.9583H38.8904L43.1355 75.6148L47.3806 69.9583ZM52.6715 77.8511H51.056V70.0052H52.6715V77.8511ZM64.8578 69.9583H66.8762L60.6127 78.3106L54.3492 69.9583H56.3676L60.6127 75.6148L64.8578 69.9583ZM79.6047 71.549H70.1639V73.0666L76.4591 73.09V74.7221L70.1694 74.6987V76.2163H79.6047V77.847H68.5331V69.9183H79.6047V71.549ZM91.366 69.91H92.9967V77.7242L83.5573 72.7948V77.8346H81.9252V70.0204L91.3646 74.9498V69.91H91.366ZM95.3187 69.8286H106.389V71.4648H101.668V77.7808H100.037V71.4648H95.3173V69.8286H95.3187ZM119.796 69.8369L119.825 73.7964C119.826 74.2417 119.738 74.6827 119.567 75.0938C119.396 75.5049 119.145 75.878 118.829 76.1914C118.139 76.9006 116.787 77.749 114.295 77.767H114.222C112.338 77.767 110.762 77.2262 109.783 76.2383C109.458 75.9225 109.2 75.5451 109.023 75.1281C108.846 74.7112 108.754 74.2631 108.752 73.8102L108.723 69.8562L110.354 69.8438L110.384 73.8102V73.8199C110.385 74.0582 110.435 74.2939 110.529 74.5126C110.624 74.7313 110.763 74.9283 110.936 75.0919C111.616 75.7817 112.803 76.1487 114.279 76.139C115.785 76.128 116.986 75.7417 117.659 75.0532C117.826 74.8941 117.959 74.7028 118.051 74.4908C118.142 74.2789 118.189 74.0506 118.19 73.8199L118.161 69.8589L119.796 69.8369ZM124.096 71.5862C123.945 71.669 123.79 71.8097 123.79 72.2181C123.79 72.5354 123.892 72.7093 124.156 72.8362C124.338 72.9189 124.535 72.9657 124.735 72.9741L130.668 72.9976C131.698 72.9976 133.235 73.6336 133.235 75.3857C133.235 77.1379 131.807 77.7753 130.847 77.7753H122.158V76.1459H130.833C130.993 76.1354 131.149 76.0922 131.291 76.019C131.443 75.9348 131.597 75.7941 131.597 75.3871C131.597 75.0698 131.495 74.896 131.232 74.769C131.049 74.6862 130.853 74.6394 130.652 74.6311L124.728 74.6049C123.695 74.6049 122.158 73.9689 122.158 72.2167C122.158 70.4646 123.586 69.8272 124.546 69.8272H133.228V71.4648H124.553C124.393 71.4747 124.237 71.518 124.095 71.5918L124.096 71.5862Z" fill="white"/>
<path d="M29.7283 74.0102V73.9481C29.7283 73.9095 29.7283 73.8695 29.7283 73.8309C29.7283 73.7522 29.7283 73.6764 29.7187 73.6005C29.709 73.5246 29.7007 73.4515 29.6924 73.3784C29.685 73.3069 29.673 73.2359 29.6566 73.1659C29.5633 72.7134 29.389 72.2815 29.142 71.8911C29.0454 71.7463 28.9557 71.6318 28.8964 71.5517C28.8371 71.4717 28.8081 71.451 28.8026 71.4469C28.7873 71.4303 28.7669 71.4191 28.7446 71.4152L28.764 71.3958C28.2286 70.8822 27.5541 70.5373 26.8244 70.4039C26.0946 70.2706 25.3417 70.3546 24.6593 70.6457C23.9769 70.9368 23.3951 71.422 22.9863 72.041C22.5774 72.6601 22.3595 73.3856 22.3597 74.1275C22.3596 74.7153 22.1871 75.2902 21.8636 75.781C21.5402 76.2718 21.0799 76.6571 20.5398 76.889C19.9997 77.121 19.4034 77.1895 18.8247 77.0861C18.2461 76.9827 17.7104 76.712 17.2841 76.3073L17.2703 76.288L17.1709 76.1887C17.1268 76.1335 17.0619 76.0604 16.9805 75.9569C16.7585 75.6556 16.5926 75.3168 16.4908 74.9567C16.4726 74.9003 16.4588 74.8427 16.4494 74.7842C16.437 74.7249 16.4245 74.6642 16.4135 74.6035C16.4025 74.5428 16.4011 74.4765 16.3928 74.4131L16.3845 74.3151V74.2655V74.253C16.3845 74.253 16.3845 74.2793 16.3845 74.2641V74.2241C16.3816 74.0799 16.388 73.9356 16.4039 73.7922C16.4135 73.7246 16.4149 73.6543 16.4301 73.5881C16.4452 73.5218 16.4604 73.4501 16.4756 73.3742C16.5501 73.0797 16.6663 72.7972 16.8205 72.5354C16.9837 72.2628 17.1853 72.0151 17.4193 71.8001C17.6579 71.5873 17.9249 71.4085 18.2125 71.2689C18.4975 71.1378 18.7986 71.045 19.1079 70.993C19.1838 70.9792 19.2597 70.9778 19.3342 70.9695L19.4473 70.9585H19.5549C19.7025 70.9567 19.85 70.965 19.9964 70.9833L20.2006 71.0123C20.2676 71.0239 20.3339 71.0391 20.3993 71.0578L20.591 71.1061C20.6517 71.1268 20.7097 71.1516 20.7676 71.1723L20.9401 71.2386C20.9939 71.2634 21.0449 71.291 21.096 71.3172C21.1923 71.3627 21.2846 71.4162 21.3719 71.4772C21.4561 71.5352 21.5388 71.5835 21.6092 71.6373L21.7954 71.7932C21.8456 71.8348 21.8918 71.881 21.9334 71.9311C21.9734 71.9711 22.0065 72.007 22.0341 72.036L22.1183 72.1229C22.1183 72.1229 22.0907 72.0912 22.041 72.0291L21.9472 71.9173C21.9062 71.8645 21.86 71.816 21.8092 71.7725C21.7554 71.72 21.6975 71.6621 21.6313 71.6C21.565 71.5379 21.485 71.4841 21.4036 71.4193C21.3166 71.351 21.2243 71.2897 21.1277 71.2358C21.078 71.2054 21.027 71.1723 20.9732 71.1434L20.8021 71.0633C20.7428 71.0371 20.6835 71.0054 20.6214 70.9806L20.4269 70.9157C20.36 70.8909 20.2918 70.8697 20.2227 70.8523L20.0047 70.8067C19.8564 70.7764 19.7061 70.757 19.5549 70.7488H19.4984C19.4869 70.7477 19.4753 70.7477 19.4639 70.7488H19.4335H19.3149C19.2349 70.7488 19.1521 70.7488 19.0707 70.7488C18.731 70.7783 18.3969 70.8535 18.0773 70.9723C17.7472 71.1047 17.4367 71.2816 17.1544 71.4979C16.8711 71.7252 16.6229 71.993 16.4177 72.2926C16.2163 72.5822 16.0582 72.8996 15.9486 73.2349C15.9237 73.3177 15.9003 73.4004 15.8755 73.4804C15.8506 73.5605 15.841 73.6529 15.8244 73.7371C15.7975 73.8909 15.7791 74.0461 15.7692 74.202V74.34C15.7692 74.3786 15.7692 74.4186 15.7692 74.4572C15.7692 74.5359 15.7692 74.6117 15.7775 74.6876C15.7858 74.7635 15.7954 74.838 15.8051 74.9097C15.8119 74.9813 15.8239 75.0524 15.841 75.1222C15.9342 75.5751 16.1086 76.0075 16.3556 76.3984C16.4521 76.5432 16.5418 76.6577 16.6011 76.7377L16.695 76.844L16.7157 76.8605C17.2496 77.3782 17.9243 77.7271 18.6553 77.8638C19.3864 78.0004 20.1415 77.9186 20.8264 77.6287C21.5113 77.3388 22.0957 76.8536 22.5065 76.2336C22.9173 75.6136 23.1364 74.8864 23.1364 74.1427C23.135 73.5558 23.3057 72.9813 23.6274 72.4905C23.9492 71.9996 24.4078 71.6138 24.9465 71.381C25.4852 71.1481 26.0804 71.0783 26.6584 71.1803C27.2364 71.2822 27.7718 71.5514 28.1983 71.9546C28.2032 71.9718 28.2117 71.9878 28.2231 72.0015L28.3225 72.1008C28.3652 72.156 28.4315 72.2291 28.5129 72.3326C28.7349 72.6337 28.9004 72.9726 29.0013 73.3328C29.0205 73.389 29.0348 73.4467 29.044 73.5053C29.0551 73.5646 29.0675 73.6253 29.0799 73.686C29.0923 73.7467 29.0923 73.8129 29.0992 73.8764L29.1089 73.9744V74.024V74.0627C29.1118 74.2069 29.1054 74.3511 29.0896 74.4945C29.0799 74.5621 29.0785 74.6324 29.0633 74.6987C29.0482 74.7649 29.033 74.8366 29.0164 74.9125C28.9431 75.2075 28.8269 75.4901 28.6715 75.7513C28.5089 76.0239 28.3077 76.2716 28.0741 76.4867C27.8355 76.6994 27.5685 76.8782 27.2809 77.0178C26.9959 77.1489 26.6948 77.2417 26.3855 77.2937C26.3096 77.3075 26.2337 77.3089 26.1592 77.3172L26.0461 77.3269H26.0171H25.9385C25.7909 77.3287 25.6434 77.3204 25.497 77.302L25.2914 77.2744C25.2249 77.2627 25.1591 77.2475 25.0941 77.2289L24.9024 77.1806C24.8417 77.1599 24.7823 77.1351 24.7244 77.1144L24.5533 77.0482C24.4995 77.0233 24.4485 76.9957 24.3974 76.9695C24.301 76.9243 24.2086 76.8708 24.1215 76.8095C24.0373 76.7515 23.9546 76.7033 23.8842 76.6495L23.698 76.4936C23.6478 76.4519 23.6016 76.4057 23.56 76.3556C23.52 76.3142 23.4855 76.2797 23.4593 76.2507L23.3751 76.1638L23.4524 76.2576L23.5462 76.3694C23.5878 76.4196 23.634 76.4657 23.6842 76.5074C23.738 76.5598 23.7959 76.6177 23.8621 76.6798C23.9284 76.7419 24.0084 76.7957 24.0898 76.8605C24.1768 76.9288 24.2691 76.9901 24.3657 77.044C24.4154 77.0744 24.4664 77.1075 24.5202 77.1365L24.6913 77.2165C24.7506 77.2427 24.8099 77.2744 24.872 77.2993L25.0666 77.3641C25.1334 77.389 25.2016 77.4102 25.2707 77.4276L25.4887 77.4731C25.637 77.5034 25.7873 77.5228 25.9385 77.531H25.995C26.0065 77.5322 26.0181 77.5322 26.0295 77.531H26.0599H26.1785C26.2586 77.531 26.3413 77.531 26.4227 77.5241C26.7624 77.4946 27.0965 77.4195 27.4161 77.3006C27.7462 77.1682 28.0567 76.9913 28.339 76.775C28.6209 76.5514 28.8686 76.2879 29.0744 75.9928C29.2758 75.7032 29.4338 75.3857 29.5434 75.0505C29.5683 74.9677 29.5917 74.8849 29.6166 74.8049C29.6414 74.7249 29.6511 74.6324 29.6676 74.5483C29.6945 74.3944 29.7129 74.2392 29.7228 74.0833V74.0254L29.7283 74.0102Z" fill="white"/>
</svg>
