<svg width="176" height="13" viewBox="0 0 176 13" fill="none" xmlns="http://www.w3.org/2000/svg">
<path d="M47.3636 0.200842H50.3878L41.0031 13L31.6184 0.200842H34.6426L41.0031 8.86893L47.3636 0.200842ZM55.291 12.296H52.8704V0.272729H55.291V12.296ZM73.5498 0.200842H76.5739L67.1893 13L57.8046 0.200842H60.8288L67.1893 8.86893L73.5498 0.200842ZM95.6451 2.63847H81.4999V4.96406L90.9321 5.00001V7.50105L81.5081 7.46512V9.7907H95.6451V12.2896H79.0565V0.139536H95.6451V2.63847ZM113.267 0.126851H115.711V12.1015L101.567 4.54757V12.2706H99.122V0.295982L113.265 7.8499V0.126851H113.267ZM119.19 0.00211623H135.776V2.50951H128.702V12.1882H126.259V2.50951H119.187V0.00211623H119.19ZM155.864 0.0148007L155.908 6.08246C155.909 6.7648 155.777 7.44059 155.521 8.07062C155.265 8.70065 154.889 9.27237 154.415 9.75265C153.382 10.8393 151.356 12.1395 147.623 12.167H147.513C144.689 12.167 142.329 11.3383 140.861 9.82452C140.375 9.34052 139.988 8.76212 139.722 8.1232C139.457 7.48428 139.319 6.79768 139.317 6.10359L139.274 0.0443957L141.717 0.025369L141.762 6.10359V6.11839C141.764 6.48367 141.838 6.84484 141.98 7.17994C142.122 7.51504 142.329 7.81706 142.589 8.06765C143.608 9.12473 145.386 9.68711 147.598 9.67231C149.855 9.65539 151.654 9.06343 152.662 8.00846C152.913 7.76453 153.112 7.47136 153.249 7.14656C153.386 6.82176 153.457 6.47203 153.458 6.11839L153.415 0.0486217L155.864 0.0148007ZM162.307 2.69556C162.08 2.82241 161.848 3.03806 161.848 3.66385C161.848 4.15011 162.001 4.41649 162.396 4.61099C162.67 4.73773 162.964 4.8095 163.264 4.82241L172.153 4.85835C173.697 4.85835 176 5.83298 176 8.51797C176 11.203 173.86 12.1797 172.422 12.1797H159.403V9.68287H172.401C172.64 9.66669 172.874 9.6005 173.087 9.48837C173.315 9.35941 173.546 9.14376 173.546 8.52008C173.546 8.03383 173.393 7.76744 172.999 7.57294C172.725 7.44601 172.43 7.37422 172.13 7.36153L163.254 7.32136C161.706 7.32136 159.403 6.34673 159.403 3.66174C159.403 0.976746 161.543 0 162.981 0H175.99V2.50951H162.992C162.752 2.52467 162.518 2.59092 162.305 2.70401L162.307 2.69556Z" fill="white"/>
<path d="M20.915 6.41018V6.31504C20.915 6.25585 20.915 6.19454 20.915 6.13534C20.915 6.01484 20.915 5.89855 20.9006 5.78227C20.8861 5.66599 20.8737 5.55394 20.8613 5.44189C20.8501 5.33232 20.8322 5.22358 20.8075 5.11632C20.6678 4.42292 20.4066 3.7611 20.0365 3.16283C19.8918 2.94084 19.7575 2.76536 19.6686 2.64274C19.5797 2.52012 19.5363 2.48841 19.528 2.48206C19.505 2.45659 19.4745 2.43951 19.4412 2.43344L19.4701 2.40384C18.668 1.61679 17.6574 1.08822 16.564 0.883848C15.4706 0.679476 14.3425 0.808311 13.3201 1.25434C12.2976 1.70038 11.426 2.44393 10.8134 3.39256C10.2008 4.34118 9.87433 5.45303 9.87459 6.58988C9.87438 7.49067 9.61597 8.37164 9.13132 9.12378C8.64667 9.87592 7.95705 10.4662 7.14778 10.8217C6.33852 11.1772 5.44511 11.2822 4.57811 11.1237C3.7111 10.9653 2.90852 10.5503 2.26969 9.93026L2.24902 9.90067L2.10018 9.74844C2.03404 9.66387 1.93688 9.55183 1.81492 9.39326C1.48224 8.9316 1.23366 8.41237 1.0811 7.8605C1.05389 7.77415 1.03316 7.6858 1.01909 7.59623C1.00048 7.50532 0.981878 7.41229 0.965341 7.31927C0.948804 7.22625 0.946736 7.12477 0.934334 7.02751L0.921932 6.8774V6.8013V6.78228C0.921932 6.78228 0.921932 6.82244 0.921932 6.79918V6.73788C0.917475 6.51689 0.927142 6.29584 0.950871 6.07614C0.965341 5.97255 0.967407 5.86473 0.990145 5.76325C1.01288 5.66177 1.03562 5.55184 1.05836 5.43556C1.17004 4.98415 1.34405 4.55133 1.57514 4.15014C1.8196 3.73233 2.12176 3.3528 2.47227 3.02329C2.82988 2.69723 3.22987 2.42333 3.66085 2.20934C4.08782 2.00844 4.53893 1.86626 5.00241 1.78651C5.1161 1.76537 5.22979 1.76324 5.34142 1.75056L5.51092 1.73366H5.67215C5.89324 1.73085 6.11425 1.74356 6.33363 1.77171L6.63956 1.8161C6.73994 1.83385 6.83931 1.85715 6.93723 1.88587L7.22455 1.95987C7.31551 1.99159 7.40233 2.02964 7.48914 2.06135L7.74753 2.16282C7.82815 2.20088 7.90463 2.24316 7.98112 2.28333C8.12542 2.35306 8.26371 2.4351 8.39454 2.52858C8.52063 2.61738 8.64466 2.69137 8.75008 2.77382L9.02914 3.01272C9.10425 3.07655 9.17344 3.14732 9.23585 3.22414C9.2958 3.28545 9.34541 3.34042 9.38675 3.38482L9.51285 3.51801C9.51285 3.51801 9.4715 3.46939 9.39709 3.37425L9.25653 3.203C9.19516 3.12203 9.12589 3.04764 9.04981 2.981C8.9692 2.90067 8.88238 2.81187 8.78316 2.71673C8.68393 2.6216 8.56404 2.53914 8.44208 2.43978C8.31163 2.33521 8.1734 2.2412 8.02866 2.1586C7.95424 2.11209 7.87776 2.06134 7.79715 2.01695L7.54082 1.89433C7.45194 1.85417 7.36305 1.80553 7.27003 1.76748L6.97857 1.66812C6.87841 1.63 6.77628 1.59753 6.67264 1.57086L6.34603 1.50109C6.12384 1.45462 5.89861 1.42495 5.67215 1.4123H5.5874C5.57022 1.41059 5.55291 1.41059 5.53572 1.4123H5.49025H5.31248C5.19258 1.4123 5.06856 1.4123 4.9466 1.4123C4.43769 1.4575 3.93707 1.5727 3.45828 1.75479C2.96367 1.95778 2.49842 2.22877 2.07538 2.56029C1.65095 2.90856 1.27902 3.31889 0.971542 3.77805C0.669814 4.22183 0.433045 4.70829 0.268724 5.22202C0.231516 5.34887 0.196375 5.47572 0.159167 5.59834C0.121959 5.72096 0.107489 5.86261 0.0826832 5.99157C0.0423652 6.22733 0.0147632 6.46519 0 6.70405V6.91547C0 6.97467 0 7.03597 0 7.09517C0 7.21568 -5.04389e-07 7.33195 0.0124022 7.44823C0.0248048 7.56451 0.039274 7.67867 0.0537438 7.78861C0.063924 7.89832 0.0818867 8.00715 0.107489 8.1142C0.247219 8.80825 0.508427 9.47076 0.878522 10.0698C1.02322 10.2918 1.15758 10.4673 1.24647 10.5899L1.38703 10.7527L1.41804 10.778C2.21811 11.5713 3.22893 12.106 4.3243 12.3154C5.41968 12.5248 6.55108 12.3995 7.57727 11.9552C8.60346 11.511 9.47897 10.7674 10.0945 9.81734C10.71 8.86728 11.0383 7.75284 11.0384 6.61313C11.0362 5.71376 11.292 4.83349 11.774 4.08127C12.2561 3.32906 12.9432 2.73793 13.7504 2.38107C14.5576 2.02421 15.4494 1.91728 16.3153 2.07352C17.1813 2.22975 17.9835 2.64229 18.6226 3.26008C18.6299 3.28645 18.6426 3.31095 18.6598 3.33196L18.8086 3.48418C18.8727 3.56874 18.9719 3.68079 19.0939 3.83935C19.4266 4.30069 19.6746 4.82006 19.8257 5.37212C19.8545 5.45813 19.876 5.54656 19.8897 5.63639C19.9063 5.7273 19.9249 5.82032 19.9435 5.91335C19.9621 6.00637 19.9621 6.10785 19.9724 6.2051L19.9869 6.35521V6.43132V6.49052C19.9914 6.71151 19.9817 6.93256 19.958 7.15226C19.9435 7.25585 19.9414 7.36367 19.9187 7.46515C19.8959 7.56663 19.8732 7.67656 19.8484 7.79284C19.7386 8.24486 19.5644 8.67794 19.3316 9.07826C19.0879 9.49601 18.7864 9.87556 18.4366 10.2051C18.079 10.5312 17.679 10.8051 17.248 11.0191C16.821 11.22 16.3699 11.3621 15.9064 11.4419C15.7927 11.463 15.679 11.4651 15.5674 11.4778L15.3979 11.4926H15.3545H15.2367C15.0156 11.4954 14.7946 11.4827 14.5752 11.4546L14.2672 11.4123C14.1676 11.3943 14.0689 11.371 13.9716 11.3425L13.6843 11.2685C13.5933 11.2368 13.5044 11.1988 13.4176 11.167L13.1613 11.0656C13.0807 11.0275 13.0042 10.9852 12.9277 10.9451C12.7832 10.8758 12.6448 10.7937 12.5143 10.6998C12.3882 10.611 12.2642 10.537 12.1587 10.4546L11.8797 10.2157C11.8046 10.1518 11.7354 10.0811 11.673 10.0043C11.613 9.94083 11.5614 9.88798 11.5221 9.84358L11.396 9.71039L11.5117 9.85415L11.6523 10.0254C11.7147 10.1023 11.7839 10.173 11.859 10.2368C11.9396 10.3172 12.0265 10.4059 12.1257 10.5011C12.2249 10.5962 12.3448 10.6787 12.4667 10.778C12.5972 10.8826 12.7354 10.9766 12.8802 11.0592C12.9546 11.1057 13.0311 11.1565 13.1117 11.2009L13.368 11.3235C13.4569 11.3637 13.5458 11.4123 13.6388 11.4503L13.9303 11.5497C14.0304 11.5878 14.1326 11.6203 14.2362 11.647L14.5628 11.7167C14.785 11.7632 15.0102 11.7929 15.2367 11.8055H15.3214C15.3386 11.8072 15.3559 11.8072 15.3731 11.8055H15.4186H15.5964C15.7162 11.8055 15.8403 11.8055 15.9622 11.7949C16.4711 11.7497 16.9718 11.6345 17.4506 11.4525C17.9452 11.2495 18.4104 10.9785 18.8335 10.647C19.2558 10.3043 19.6269 9.90051 19.9352 9.44823C20.237 9.00445 20.4737 8.518 20.638 8.00426C20.6752 7.87741 20.7104 7.75056 20.7476 7.62794C20.7848 7.50532 20.7993 7.36366 20.8241 7.2347C20.8644 6.99894 20.892 6.76109 20.9068 6.52223V6.43344L20.915 6.41018Z" fill="white"/>
</svg>
