<svg width="176" height="13" viewBox="0 0 176 13" fill="none" xmlns="http://www.w3.org/2000/svg">
<path d="M47.3637 0.200842H50.3878L41.0032 13L31.6185 0.200842H34.6427L41.0032 8.86893L47.3637 0.200842ZM55.291 12.296H52.8704V0.272729H55.291V12.296ZM73.5498 0.200842H76.574L67.1893 13L57.8046 0.200842H60.8288L67.1893 8.86893L73.5498 0.200842ZM95.6452 2.63847H81.4999V4.96406L90.9322 5.00001V7.50105L81.5082 7.46512V9.7907H95.6452V12.2896H79.0566V0.139536H95.6452V2.63847ZM113.267 0.126851H115.711V12.1015L101.567 4.54757V12.2706H99.1221V0.295982L113.265 7.8499V0.126851H113.267ZM119.19 0.00211623H135.776V2.50951H128.702V12.1882H126.259V2.50951H119.188V0.00211623H119.19ZM155.864 0.0148007L155.908 6.08246C155.909 6.7648 155.777 7.44059 155.521 8.07062C155.265 8.70065 154.889 9.27237 154.415 9.75265C153.382 10.8393 151.356 12.1395 147.623 12.167H147.513C144.689 12.167 142.329 11.3383 140.861 9.82452C140.375 9.34052 139.988 8.76212 139.722 8.1232C139.457 7.48428 139.32 6.79768 139.317 6.10359L139.274 0.0443957L141.717 0.025369L141.762 6.10359V6.11839C141.764 6.48367 141.838 6.84484 141.98 7.17994C142.122 7.51504 142.329 7.81706 142.589 8.06765C143.608 9.12473 145.386 9.68711 147.598 9.67231C149.855 9.65539 151.654 9.06343 152.662 8.00846C152.913 7.76453 153.112 7.47136 153.249 7.14656C153.386 6.82176 153.457 6.47203 153.458 6.11839V6.11839L153.415 0.0486217L155.864 0.0148007ZM162.307 2.69556C162.08 2.82241 161.849 3.03806 161.849 3.66385C161.849 4.15011 162.002 4.41649 162.396 4.61099C162.67 4.73773 162.965 4.8095 163.265 4.82241L172.153 4.85835C173.697 4.85835 176 5.83298 176 8.51797C176 11.203 173.861 12.1797 172.422 12.1797H159.403V9.68287H172.401C172.641 9.66669 172.874 9.6005 173.087 9.48837C173.315 9.35941 173.546 9.14376 173.546 8.52008C173.546 8.03383 173.393 7.76744 172.999 7.57294C172.725 7.44601 172.43 7.37422 172.13 7.36153L163.254 7.32136C161.706 7.32136 159.403 6.34673 159.403 3.66174C159.403 0.976746 161.543 0 162.981 0H175.99V2.50951H162.992C162.752 2.52467 162.518 2.59092 162.305 2.70401L162.307 2.69556Z" fill="white"/>
<path d="M20.915 6.41037V6.31523C20.915 6.25603 20.915 6.19472 20.915 6.13553C20.915 6.01502 20.915 5.89873 20.9006 5.78245C20.8861 5.66617 20.8737 5.55413 20.8613 5.44208C20.8501 5.3325 20.8322 5.22376 20.8075 5.1165C20.6678 4.4231 20.4066 3.76128 20.0365 3.16301C19.8918 2.94103 19.7575 2.76555 19.6686 2.64293C19.5797 2.5203 19.5363 2.48859 19.528 2.48225C19.505 2.45677 19.4745 2.4397 19.4412 2.43363L19.4701 2.40402C18.668 1.61697 17.6574 1.0884 16.564 0.884032C15.4706 0.679659 14.3425 0.808494 13.3201 1.25453C12.2976 1.70056 11.426 2.44412 10.8134 3.39274C10.2008 4.34137 9.87433 5.45322 9.87459 6.59006C9.87438 7.49085 9.61597 8.37182 9.13132 9.12396C8.64667 9.87611 7.95705 10.4664 7.14778 10.8219C6.33852 11.1773 5.44511 11.2824 4.57811 11.1239C3.7111 10.9655 2.90853 10.5505 2.26969 9.93044L2.24902 9.90085L2.10018 9.74862C2.03404 9.66406 1.93688 9.55201 1.81492 9.39345C1.48224 8.93178 1.23366 8.41255 1.0811 7.86068C1.05389 7.77433 1.03316 7.68598 1.01909 7.59641C1.00048 7.5055 0.981878 7.41248 0.965341 7.31945C0.948804 7.22643 0.946736 7.12495 0.934334 7.0277L0.921932 6.87759V6.80148V6.78246C0.921932 6.78246 0.921932 6.82262 0.921932 6.79936V6.73806C0.917475 6.51707 0.927142 6.29602 0.950871 6.07632C0.965341 5.97273 0.967407 5.86491 0.990145 5.76343C1.01288 5.66195 1.03562 5.55202 1.05836 5.43574C1.17004 4.98434 1.34405 4.55151 1.57514 4.15033C1.8196 3.73251 2.12176 3.35298 2.47227 3.02347C2.82988 2.69742 3.22987 2.42351 3.66085 2.20953C4.08782 2.00862 4.53893 1.86644 5.00241 1.78669C5.1161 1.76555 5.22979 1.76343 5.34142 1.75074L5.51092 1.73384H5.67215C5.89324 1.73103 6.11425 1.74375 6.33363 1.77189L6.63956 1.81628C6.73994 1.83404 6.83931 1.85733 6.93723 1.88605L7.22455 1.96006C7.31551 1.99177 7.40233 2.02982 7.48914 2.06153L7.74753 2.16301C7.82815 2.20106 7.90463 2.24335 7.98112 2.28352C8.12542 2.35324 8.26371 2.43528 8.39454 2.52877C8.52063 2.61756 8.64466 2.69155 8.75008 2.774L9.02914 3.0129C9.10425 3.07673 9.17344 3.1475 9.23585 3.22432C9.2958 3.28563 9.34541 3.3406 9.38675 3.385L9.51285 3.51819C9.51285 3.51819 9.4715 3.46957 9.39709 3.37443L9.25653 3.20318C9.19515 3.12222 9.12589 3.04783 9.04981 2.98119C8.9692 2.90085 8.88238 2.81205 8.78316 2.71692C8.68393 2.62178 8.56404 2.53933 8.44208 2.43996C8.31163 2.33539 8.1734 2.24139 8.02866 2.15879C7.95424 2.11228 7.87776 2.06153 7.79715 2.01713L7.54082 1.89452C7.45194 1.85435 7.36305 1.80571 7.27003 1.76766L6.97857 1.6683C6.87841 1.63019 6.77628 1.59772 6.67264 1.57104L6.34603 1.50127C6.12384 1.45481 5.89861 1.42513 5.67215 1.41248H5.5874C5.57022 1.41077 5.55291 1.41077 5.53572 1.41248H5.49025H5.31248C5.19258 1.41248 5.06856 1.41248 4.9466 1.41248C4.43769 1.45768 3.93707 1.57289 3.45828 1.75498C2.96367 1.95796 2.49842 2.22895 2.07538 2.56047C1.65095 2.90874 1.27902 3.31907 0.971542 3.77823C0.669814 4.22201 0.433045 4.70847 0.268724 5.22221C0.231516 5.34906 0.196375 5.4759 0.159167 5.59852C0.121959 5.72114 0.107489 5.86279 0.0826832 5.99175C0.0423652 6.22751 0.0147632 6.46538 0 6.70424V6.91565C0 6.97485 0 7.03616 0 7.09535C0 7.21586 -5.04389e-07 7.33214 0.0124022 7.44841C0.0248048 7.56469 0.039274 7.67885 0.0537438 7.78879C0.063924 7.89851 0.0818867 8.00733 0.107489 8.11438C0.247219 8.80843 0.508427 9.47094 0.878522 10.07C1.02322 10.292 1.15758 10.4674 1.24647 10.5901L1.38703 10.7529L1.41804 10.7782C2.21811 11.5715 3.22893 12.1062 4.3243 12.3156C5.41968 12.5249 6.55108 12.3997 7.57727 11.9554C8.60346 11.5111 9.47897 10.7676 10.0945 9.81752C10.71 8.86747 11.0383 7.75302 11.0384 6.61332C11.0362 5.71394 11.292 4.83367 11.774 4.08146C12.2561 3.32924 12.9432 2.73811 13.7504 2.38125C14.5576 2.02439 15.4494 1.91746 16.3153 2.0737C17.1813 2.22994 17.9835 2.64247 18.6226 3.26026C18.6299 3.28663 18.6426 3.31113 18.6598 3.33215L18.8086 3.48436C18.8727 3.56893 18.9719 3.68097 19.0939 3.83954C19.4266 4.30088 19.6746 4.82025 19.8257 5.3723C19.8545 5.45831 19.876 5.54674 19.8897 5.63658C19.9063 5.72748 19.9249 5.82051 19.9435 5.91353C19.9621 6.00655 19.9621 6.10803 19.9724 6.20529L19.9869 6.3554V6.4315V6.49071C19.9914 6.71169 19.9817 6.93274 19.958 7.15244C19.9435 7.25603 19.9414 7.36385 19.9187 7.46533C19.8959 7.56681 19.8732 7.67674 19.8484 7.79302C19.7386 8.24504 19.5644 8.67813 19.3316 9.07844C19.0879 9.4962 18.7864 9.87574 18.4366 10.2053C18.079 10.5313 17.679 10.8053 17.248 11.0192C16.821 11.2201 16.3699 11.3623 15.9064 11.4421C15.7927 11.4632 15.679 11.4653 15.5674 11.478L15.3979 11.4928H15.3545H15.2367C15.0156 11.4956 14.7946 11.4829 14.5752 11.4548L14.2672 11.4125C14.1676 11.3945 14.0689 11.3712 13.9716 11.3427L13.6843 11.2687C13.5933 11.237 13.5044 11.1989 13.4176 11.1672L13.1613 11.0657C13.0807 11.0277 13.0042 10.9854 12.9277 10.9452C12.7832 10.876 12.6448 10.7939 12.5143 10.7C12.3882 10.6112 12.2642 10.5372 12.1587 10.4548L11.8797 10.2159C11.8046 10.152 11.7354 10.0813 11.673 10.0044C11.613 9.94102 11.5614 9.88816 11.5221 9.84376L11.396 9.71057L11.5117 9.85433L11.6523 10.0256C11.7147 10.1025 11.7839 10.1732 11.859 10.237C11.9396 10.3173 12.0265 10.4061 12.1257 10.5013C12.2249 10.5964 12.3448 10.6789 12.4667 10.7782C12.5972 10.8828 12.7354 10.9768 12.8802 11.0594C12.9546 11.1059 13.0311 11.1567 13.1117 11.2011L13.368 11.3237C13.4569 11.3638 13.5458 11.4125 13.6388 11.4505L13.9303 11.5499C14.0304 11.588 14.1326 11.6205 14.2362 11.6471L14.5628 11.7169C14.785 11.7634 15.0102 11.7931 15.2367 11.8057H15.3214C15.3386 11.8074 15.3559 11.8074 15.3731 11.8057H15.4186H15.5964C15.7162 11.8057 15.8403 11.8057 15.9622 11.7951C16.4711 11.7499 16.9718 11.6347 17.4506 11.4526C17.9452 11.2497 18.4104 10.9787 18.8335 10.6471C19.2558 10.3045 19.6269 9.90069 19.9352 9.44842C20.237 9.00464 20.4737 8.51818 20.638 8.00444C20.6752 7.87759 20.7104 7.75075 20.7476 7.62813C20.7848 7.5055 20.7993 7.36385 20.8241 7.23488C20.8644 6.99912 20.892 6.76127 20.9068 6.52241V6.43362L20.915 6.41037Z" fill="white"/>
</svg>
