<svg width="25" height="25" viewBox="0 0 25 25" fill="none" xmlns="http://www.w3.org/2000/svg">
<path d="M12.5764 9.26447C10.8561 9.26447 9.45219 10.6684 9.45219 12.3887C9.45219 14.109 10.8561 15.5129 12.5764 15.5129C14.2967 15.5129 15.7006 14.109 15.7006 12.3887C15.7006 10.6684 14.2967 9.26447 12.5764 9.26447ZM21.9467 12.3887C21.9467 11.0949 21.9584 9.8129 21.8858 8.5215C21.8131 7.0215 21.4709 5.69025 20.3741 4.59337C19.2748 3.49415 17.9459 3.15431 16.4459 3.08165C15.1522 3.009 13.8702 3.02072 12.5787 3.02072C11.285 3.02072 10.003 3.009 8.71156 3.08165C7.21156 3.15431 5.88031 3.4965 4.78344 4.59337C3.68422 5.69259 3.34437 7.0215 3.27172 8.5215C3.19906 9.81525 3.21078 11.0973 3.21078 12.3887C3.21078 13.6801 3.19906 14.9645 3.27172 16.2559C3.34437 17.7559 3.68656 19.0871 4.78344 20.184C5.88266 21.2832 7.21156 21.6231 8.71156 21.6957C10.0053 21.7684 11.2873 21.7567 12.5787 21.7567C13.8725 21.7567 15.1545 21.7684 16.4459 21.6957C17.9459 21.6231 19.2772 21.2809 20.3741 20.184C21.4733 19.0848 21.8131 17.7559 21.8858 16.2559C21.9608 14.9645 21.9467 13.6824 21.9467 12.3887ZM12.5764 17.1957C9.91625 17.1957 7.76937 15.0488 7.76937 12.3887C7.76937 9.72853 9.91625 7.58165 12.5764 7.58165C15.2366 7.58165 17.3834 9.72853 17.3834 12.3887C17.3834 15.0488 15.2366 17.1957 12.5764 17.1957ZM17.5803 8.50743C16.9592 8.50743 16.4577 8.00587 16.4577 7.38478C16.4577 6.76369 16.9592 6.26212 17.5803 6.26212C18.2014 6.26212 18.703 6.76369 18.703 7.38478C18.7032 7.53226 18.6742 7.67833 18.6179 7.81462C18.5615 7.95091 18.4788 8.07474 18.3746 8.17903C18.2703 8.28331 18.1464 8.366 18.0102 8.42236C17.8739 8.47871 17.7278 8.50762 17.5803 8.50743Z" fill="white"/>
</svg>
