<svg width="176" height="13" viewBox="0 0 176 13" fill="none" xmlns="http://www.w3.org/2000/svg">
<path d="M47.3636 0.200842H50.3878L41.0031 13L31.6184 0.200842H34.6426L41.0031 8.86893L47.3636 0.200842ZM55.291 12.296H52.8704V0.272729H55.291V12.296ZM73.5498 0.200842H76.5739L67.1893 13L57.8046 0.200842H60.8288L67.1893 8.86893L73.5498 0.200842ZM95.6451 2.63847H81.4999V4.96406L90.9321 5.00001V7.50105L81.5081 7.46512V9.7907H95.6451V12.2896H79.0565V0.139536H95.6451V2.63847ZM113.267 0.126851H115.711V12.1015L101.567 4.54757V12.2706H99.122V0.295982L113.265 7.8499V0.126851H113.267ZM119.19 0.00211623H135.776V2.50951H128.702V12.1882H126.259V2.50951H119.187V0.00211623H119.19ZM155.864 0.0148007L155.908 6.08246C155.909 6.7648 155.777 7.44059 155.521 8.07062C155.265 8.70065 154.889 9.27237 154.415 9.75265C153.382 10.8393 151.356 12.1395 147.623 12.167H147.513C144.689 12.167 142.329 11.3383 140.861 9.82452C140.375 9.34052 139.988 8.76212 139.722 8.1232C139.457 7.48428 139.319 6.79768 139.317 6.10359L139.274 0.0443957L141.717 0.025369L141.762 6.10359V6.11839C141.764 6.48367 141.838 6.84484 141.98 7.17994C142.122 7.51504 142.329 7.81706 142.589 8.06765C143.608 9.12473 145.386 9.68711 147.598 9.67231C149.855 9.65539 151.654 9.06343 152.662 8.00846C152.913 7.76453 153.112 7.47136 153.249 7.14656C153.386 6.82176 153.457 6.47203 153.458 6.11839L153.415 0.0486217L155.864 0.0148007ZM162.307 2.69556C162.08 2.82241 161.848 3.03806 161.848 3.66385C161.848 4.15011 162.001 4.41649 162.396 4.61099C162.67 4.73773 162.964 4.8095 163.264 4.82241L172.153 4.85835C173.697 4.85835 176 5.83298 176 8.51797C176 11.203 173.86 12.1797 172.422 12.1797H159.403V9.68287H172.401C172.64 9.66669 172.874 9.6005 173.087 9.48837C173.315 9.35941 173.546 9.14376 173.546 8.52008C173.546 8.03383 173.393 7.76744 172.999 7.57294C172.725 7.44601 172.43 7.37422 172.13 7.36153L163.254 7.32136C161.706 7.32136 159.403 6.34673 159.403 3.66174C159.403 0.976746 161.543 0 162.981 0H175.99V2.50951H162.992C162.752 2.52467 162.518 2.59092 162.305 2.70401L162.307 2.69556Z" fill="white"/>
<path d="M20.915 6.41012V6.31498C20.915 6.25579 20.915 6.19448 20.915 6.13528C20.915 6.01478 20.915 5.89849 20.9006 5.78221C20.8861 5.66593 20.8737 5.55388 20.8613 5.44183C20.8501 5.33225 20.8322 5.22352 20.8075 5.11626C20.6678 4.42286 20.4066 3.76104 20.0365 3.16277C19.8918 2.94078 19.7575 2.7653 19.6686 2.64268C19.5797 2.52006 19.5363 2.48835 19.528 2.482C19.505 2.45653 19.4745 2.43945 19.4412 2.43338L19.4701 2.40378C18.668 1.61673 17.6574 1.08816 16.564 0.883787C15.4706 0.679415 14.3425 0.80825 13.3201 1.25428C12.2976 1.70031 11.426 2.44387 10.8134 3.3925C10.2008 4.34112 9.87433 5.45297 9.87459 6.58982C9.87438 7.49061 9.61597 8.37158 9.13132 9.12372C8.64667 9.87586 7.95705 10.4662 7.14778 10.8216C6.33852 11.1771 5.44511 11.2821 4.57811 11.1237C3.7111 10.9652 2.90852 10.5503 2.26969 9.93019L2.24902 9.90061L2.10018 9.74838C2.03404 9.66381 1.93688 9.55176 1.81492 9.3932C1.48224 8.93153 1.23366 8.41231 1.0811 7.86043C1.05389 7.77408 1.03316 7.68574 1.01909 7.59616C1.00048 7.50526 0.981878 7.41223 0.965341 7.31921C0.948804 7.22619 0.946736 7.12471 0.934334 7.02745L0.921932 6.87734V6.80124V6.78222C0.921932 6.78222 0.921932 6.82238 0.921932 6.79912V6.73781C0.917475 6.51683 0.927142 6.29578 0.950871 6.07608C0.965341 5.97249 0.967407 5.86467 0.990145 5.76319C1.01288 5.66171 1.03562 5.55177 1.05836 5.4355C1.17004 4.98409 1.34405 4.55127 1.57514 4.15008C1.8196 3.73227 2.12176 3.35273 2.47227 3.02323C2.82988 2.69717 3.22987 2.42327 3.66085 2.20928C4.08782 2.00838 4.53893 1.8662 5.00241 1.78645C5.1161 1.76531 5.22979 1.76318 5.34142 1.7505L5.51092 1.73359H5.67215C5.89324 1.73079 6.11425 1.7435 6.33363 1.77165L6.63956 1.81604C6.73994 1.83379 6.83931 1.85709 6.93723 1.88581L7.22455 1.95981C7.31551 1.99152 7.40233 2.02957 7.48914 2.06129L7.74753 2.16276C7.82815 2.20082 7.90463 2.2431 7.98112 2.28327C8.12542 2.35299 8.26371 2.43504 8.39454 2.52852C8.52063 2.61732 8.64466 2.69131 8.75008 2.77376L9.02914 3.01266C9.10425 3.07649 9.17344 3.14726 9.23585 3.22408C9.2958 3.28539 9.34541 3.34036 9.38675 3.38476L9.51285 3.51795C9.51285 3.51795 9.4715 3.46932 9.39709 3.37419L9.25653 3.20294C9.19516 3.12197 9.12589 3.04758 9.04981 2.98094C8.9692 2.9006 8.88238 2.81181 8.78316 2.71667C8.68393 2.62154 8.56404 2.53908 8.44208 2.43972C8.31163 2.33515 8.1734 2.24114 8.02866 2.15854C7.95424 2.11203 7.87776 2.06128 7.79715 2.01689L7.54082 1.89427C7.45194 1.8541 7.36305 1.80547 7.27003 1.76742L6.97857 1.66806C6.87841 1.62994 6.77628 1.59747 6.67264 1.5708L6.34603 1.50103C6.12384 1.45456 5.89861 1.42489 5.67215 1.41224H5.5874C5.57022 1.41053 5.55291 1.41053 5.53572 1.41224H5.49025H5.31248C5.19258 1.41224 5.06856 1.41224 4.9466 1.41224C4.43769 1.45744 3.93707 1.57264 3.45828 1.75473C2.96367 1.95771 2.49842 2.22871 2.07538 2.56023C1.65095 2.9085 1.27902 3.31883 0.971542 3.77799C0.669814 4.22177 0.433045 4.70822 0.268724 5.22196C0.231516 5.34881 0.196375 5.47566 0.159167 5.59828C0.121959 5.7209 0.107489 5.86255 0.0826832 5.99151C0.0423652 6.22727 0.0147632 6.46513 0 6.70399V6.91541C0 6.97461 0 7.03591 0 7.09511C0 7.21562 -5.04389e-07 7.33189 0.0124022 7.44817C0.0248048 7.56445 0.039274 7.67861 0.0537438 7.78855C0.063924 7.89826 0.0818867 8.00708 0.107489 8.11414C0.247219 8.80818 0.508427 9.4707 0.878522 10.0697C1.02322 10.2917 1.15758 10.4672 1.24647 10.5898L1.38703 10.7526L1.41804 10.778C2.21811 11.5713 3.22893 12.106 4.3243 12.3153C5.41968 12.5247 6.55108 12.3994 7.57727 11.9552C8.60346 11.5109 9.47897 10.7673 10.0945 9.81727C10.71 8.86722 11.0383 7.75277 11.0384 6.61307C11.0362 5.7137 11.292 4.83343 11.774 4.08121C12.2561 3.329 12.9432 2.73787 13.7504 2.38101C14.5576 2.02414 15.4494 1.91722 16.3153 2.07346C17.1813 2.22969 17.9835 2.64223 18.6226 3.26001C18.6299 3.28639 18.6426 3.31089 18.6598 3.3319L18.8086 3.48411C18.8727 3.56868 18.9719 3.68073 19.0939 3.83929C19.4266 4.30063 19.6746 4.82 19.8257 5.37206C19.8545 5.45807 19.876 5.5465 19.8897 5.63633C19.9063 5.72724 19.9249 5.82026 19.9435 5.91329C19.9621 6.00631 19.9621 6.10779 19.9724 6.20504L19.9869 6.35515V6.43126V6.49046C19.9914 6.71145 19.9817 6.9325 19.958 7.15219C19.9435 7.25579 19.9414 7.36361 19.9187 7.46509C19.8959 7.56657 19.8732 7.6765 19.8484 7.79278C19.7386 8.2448 19.5644 8.67788 19.3316 9.07819C19.0879 9.49595 18.7864 9.8755 18.4366 10.205C18.079 10.5311 17.679 10.805 17.248 11.019C16.821 11.2199 16.3699 11.3621 15.9064 11.4418C15.7927 11.463 15.679 11.4651 15.5674 11.4778L15.3979 11.4926H15.3545H15.2367C15.0156 11.4954 14.7946 11.4827 14.5752 11.4545L14.2672 11.4122C14.1676 11.3942 14.0689 11.371 13.9716 11.3425L13.6843 11.2685C13.5933 11.2368 13.5044 11.1987 13.4176 11.167L13.1613 11.0655C13.0807 11.0274 13.0042 10.9852 12.9277 10.945C12.7832 10.8757 12.6448 10.7937 12.5143 10.6998C12.3882 10.611 12.2642 10.537 12.1587 10.4545L11.8797 10.2156C11.8046 10.1518 11.7354 10.081 11.673 10.0042C11.613 9.94077 11.5614 9.88792 11.5221 9.84352L11.396 9.71033L11.5117 9.85409L11.6523 10.0253C11.7147 10.1022 11.7839 10.173 11.859 10.2368C11.9396 10.3171 12.0265 10.4059 12.1257 10.501C12.2249 10.5962 12.3448 10.6786 12.4667 10.778C12.5972 10.8825 12.7354 10.9766 12.8802 11.0592C12.9546 11.1057 13.0311 11.1564 13.1117 11.2008L13.368 11.3234C13.4569 11.3636 13.5458 11.4122 13.6388 11.4503L13.9303 11.5497C14.0304 11.5878 14.1326 11.6202 14.2362 11.6469L14.5628 11.7167C14.785 11.7631 15.0102 11.7928 15.2367 11.8055H15.3214C15.3386 11.8072 15.3559 11.8072 15.3731 11.8055H15.4186H15.5964C15.7162 11.8055 15.8403 11.8055 15.9622 11.7949C16.4711 11.7497 16.9718 11.6345 17.4506 11.4524C17.9452 11.2494 18.4104 10.9784 18.8335 10.6469C19.2558 10.3043 19.6269 9.90044 19.9352 9.44817C20.237 9.00439 20.4737 8.51793 20.638 8.0042C20.6752 7.87735 20.7104 7.7505 20.7476 7.62788C20.7848 7.50526 20.7993 7.3636 20.8241 7.23464C20.8644 6.99888 20.892 6.76103 20.9068 6.52217V6.43337L20.915 6.41012Z" fill="white"/>
</svg>
